<svg width="60" height="60" fill="none" xmlns="http://www.w3.org/2000/svg"><g clip-path="url(#clip0)" fill="#000" fill-opacity=".8"><path d="M33.845 50.937H5.968V18.681l14.4-14.308h26.677V20.25c0 .37.277.738.738.738.462 0 .739-.277.739-.738V3.634a.728.728 0 00-.739-.738H20.091a.705.705 0 00-.461.185L4.768 17.942a.705.705 0 00-.184.462v33.18c0 .369.276.738.738.738h28.523c.37 0 .739-.277.739-.739 0-.461-.37-.646-.739-.646z"/><path d="M20.737 18.404V7.327A.728.728 0 0020 6.588c-.462 0-.739.277-.739.739v10.43H9.014a.728.728 0 00-.738.74c0 .46.277.738.738.738h11.077a.887.887 0 00.646-.831zm20.585 6.566H10.86a.728.728 0 00-.738.738c0 .461.277.738.739.738h30.461c.37 0 .738-.277.738-.738a.728.728 0 00-.738-.739zm.646 6.714a.728.728 0 00-.739-.738h-30.46a.728.728 0 00-.739.738c0 .462.277.739.739.739H41.23c.461 0 .738-.37.738-.739zM10.86 36.923a.728.728 0 00-.738.739c0 .461.277.738.739.738h24.923a.728.728 0 00.738-.738c0-.462-.277-.739-.738-.739H10.86zm.004 5.977a.728.728 0 00-.739.738c0 .462.277.739.739.739H33.44c.37 0 .738-.277.738-.739 0-.461-.276-.738-.738-.738H10.864zM41.968 7.327a.728.728 0 00-.739-.739H30.153a.728.728 0 00-.739.739V20.25c0 .37.277.738.738.738H41.23c.37 0 .739-.276.739-.738V7.327zm-1.385 12.277h-9.692V8.065h9.692v11.539z"/><path fill-rule="evenodd" clip-rule="evenodd" d="M49.476 52.194l.018-.017c.857-.8 1.922-1.224 3.054-1.224 1.154 0 2.112-.937 2.112-2.152 0-1.138.47-2.261 1.257-3.048.826-.826.826-2.2 0-3.025a4.269 4.269 0 01-1.257-3.049 2.157 2.157 0 00-2.152-2.152 4.369 4.369 0 01-3.049-1.258 2.157 2.157 0 00-3.025 0 4.268 4.268 0 01-3.048 1.258 2.157 2.157 0 00-2.152 2.152c0 1.138-.47 2.261-1.258 3.049-.433.432-.64.928-.64 1.512 0 .553.213 1.086.64 1.513a4.268 4.268 0 011.258 3.048c0 1.175.957 2.152 2.152 2.152 1.138 0 2.26.47 3.048 1.258.427.427.96.64 1.513.64.52 0 1.091-.22 1.512-.64l.017-.017zM56.06 48.8c0 1.978-1.575 3.552-3.512 3.552-.767 0-1.493.283-2.099.848a3.585 3.585 0 01-2.502 1.05 3.515 3.515 0 01-2.503-1.05 2.97 2.97 0 00-2.058-.848 3.557 3.557 0 01-3.552-3.552c0-.767-.283-1.493-.848-2.058a3.515 3.515 0 01-1.05-2.503c0-.969.364-1.816 1.05-2.502a2.97 2.97 0 00.848-2.059 3.557 3.557 0 013.552-3.552c.767 0 1.493-.282 2.058-.848a3.557 3.557 0 015.005 0 2.97 2.97 0 002.059.848 3.557 3.557 0 013.552 3.552c0 .767.282 1.493.847 2.059a3.557 3.557 0 010 5.005 2.969 2.969 0 00-.847 2.058zm-.215 3.82l1.94 4.122.961 2.078-5.093-1.856-1.061 2.918-.911 2.036-.938-1.963-2.018-4.318 1.268-.593 1.613 3.451 1.21-3.325 3.235 1.176-1.472-3.13 1.266-.596zm-9.331 3.21l-2.089 4.047-1.063 2.028-1.629-5.171-2.96.934-2.17.518.986-1.94 2.197-4.23 1.243.646-1.757 3.38 3.375-1.065 1.036 3.284 1.587-3.074 1.244.642z"/><path fill-rule="evenodd" clip-rule="evenodd" d="M53.74 41.38a6.331 6.331 0 00-7.525-3.558 6.333 6.333 0 107.997 6.95v-.002l-1.43-.194a4.891 4.891 0 11-.364-2.618l1.322-.577z"/></g><defs><clipPath id="clip0"><path fill="#fff" d="M0 0h60v60H0z"/></clipPath></defs></svg>