<svg width="52" height="60" fill="none" xmlns="http://www.w3.org/2000/svg"><path d="M43.539 33.969h-.462c.739-1.292 1.2-2.861 1.2-3.877 0-2.4-2.03-4.43-4.43-4.43s-4.431 2.03-4.431 4.43c0 1.016.461 2.585 1.2 3.877h-.462c-.923 0-1.754.277-2.492.739-.646-1.57-2.216-2.585-3.97-2.585h-.461c.738-1.292 1.2-2.862 1.2-3.877 0-2.4-2.03-4.43-4.43-4.43s-4.431 2.03-4.431 4.43c0 1.015.461 2.585 1.2 3.877h-.462c-1.754 0-3.323 1.108-3.97 2.585-.738-.462-1.569-.739-2.492-.739h-.461c.738-1.292 1.2-2.861 1.2-3.877 0-2.4-2.03-4.43-4.43-4.43s-4.432 2.03-4.432 4.43c0 1.016.462 2.585 1.2 3.877h-.461c-2.4 0-4.431 1.938-4.431 4.43v10.155c0 .369.277.738.738.738h2.954V58.8c0 .369.277.738.739.738h7.477a.728.728 0 00.738-.738V40.338a.728.728 0 00-.738-.738c-.462 0-.739.277-.739.738v17.816h-2.4V46.615a.728.728 0 00-.738-.738c-.462 0-.739.277-.739.738V57.97h-2.4V40.154a.728.728 0 00-.738-.739c-.462 0-.739.277-.739.739v7.661H5.231v-9.508c0-1.661 1.385-3.046 3.046-3.046h1.477c.646.646 1.385 1.016 2.216 1.016.83 0 1.569-.37 2.215-1.016h1.477c.83 0 1.569.37 2.123.923v9.508c0 .37.277.739.738.739h2.954v11.353c0 .37.277.739.739.739h7.476c.37 0 .739-.277.739-.739V46.431h2.954c.37 0 .738-.277.738-.739v-9.508c.554-.553 1.293-.923 2.123-.923h1.477c.647.646 1.385 1.016 2.216 1.016.83 0 1.569-.37 2.215-1.016h1.477c1.661 0 3.046 1.385 3.046 3.046v9.508h-2.215v-7.661a.728.728 0 00-.739-.739c-.461 0-.738.277-.738.739v17.815h-2.4V46.615a.728.728 0 00-.739-.738c-.461 0-.738.277-.738.738V57.97h-2.4V40.154a.728.728 0 00-.739-.739c-.461 0-.738.277-.738.739v18.461c0 .37.277.739.738.739h7.477c.37 0 .739-.277.739-.739V49.2h2.954a.728.728 0 00.738-.739V38.307c.092-2.4-1.938-4.338-4.338-4.338zm-31.385-6.923c1.662 0 3.046 1.385 3.046 3.046 0 1.2-.738 3.046-1.661 4.062-.277.277-.554.553-.923.738h-.093c-.092 0-.277.092-.369.092-.092 0-.277 0-.37-.092h-.091c-.37-.184-.739-.461-.923-.738-.924-1.016-1.662-2.862-1.662-4.062 0-1.754 1.384-3.046 3.046-3.046zM26 25.2c1.662 0 3.046 1.384 3.046 3.046 0 1.2-.738 3.046-1.661 4.061-.277.277-.554.554-.923.739h-.093c-.092 0-.276.092-.369.092-.092 0-.277 0-.369-.092h-.092c-.37-.185-.739-.462-.923-.739-.924-1.015-1.662-2.861-1.662-4.061 0-1.754 1.385-3.046 3.046-3.046zm6.739 19.846h-2.216v-4.892a.728.728 0 00-.738-.739c-.462 0-.739.277-.739.739v16.892h-2.4V44.769a.728.728 0 00-.738-.738c-.462 0-.739.276-.739.738v12.277h-2.4V40.154a.728.728 0 00-.738-.739c-.461 0-.738.277-.738.739v4.892h-2.216v-8.585c0-1.661 1.385-3.046 3.046-3.046H23.6c.646.646 1.385 1.016 2.216 1.016.83 0 1.569-.37 2.215-1.016h1.477c1.662 0 3.046 1.385 3.046 3.046v8.585h.185zm7.107-18c1.662 0 3.047 1.385 3.047 3.046 0 1.2-.739 3.046-1.662 4.062-.277.277-.554.553-.923.738h-.092c-.093 0-.277.092-.37.092-.092 0-.276 0-.369-.092h-.092c-.37-.184-.739-.461-.923-.738-.923-1.016-1.662-2.862-1.662-4.062 0-1.754 1.385-3.046 3.046-3.046z" fill="#000" fill-opacity=".8"/><path d="M50.277 34.43a26.709 26.709 0 001.292-8.122C51.57 12.185 40.123.646 25.908.646 11.692.646.43 12.184.43 26.308c0 2.769.461 5.446 1.292 8.123.093.277.37.461.646.461h.185c.37-.092.554-.554.462-.83-.831-2.493-1.2-5.077-1.2-7.662a24.86 24.86 0 012.769-11.354h8.861c-.646 2.308-1.015 4.892-1.292 7.57 0 .369.277.738.646.738.37 0 .739-.277.739-.646.184-2.77.646-5.354 1.384-7.754h10.431v5.815c0 .37.277.739.738.739.462 0 .739-.277.739-.739v-5.815h10.43c.647 2.4 1.108 4.984 1.385 7.753 0 .37.37.647.646.647h.093c.369 0 .646-.37.646-.739a38.072 38.072 0 00-1.292-7.569H47.6c1.754 3.415 2.77 7.2 2.77 11.354 0 2.585-.462 5.17-1.2 7.661-.093.37.092.739.46.831.185.092.555-.092.647-.461zM5.416 13.662C8.739 8.215 14.185 4.246 20.554 2.77c-2.862 2.215-5.17 6-6.646 10.892H5.416zm9.876 0c2.124-6.553 5.816-10.984 9.97-11.446v11.446h-9.97zm11.447 0V2.123c4.153.461 7.846 4.892 9.969 11.446h-9.97v.092zm11.446 0C36.708 8.77 34.308 4.984 31.539 2.77c6.369 1.477 11.815 5.446 15.138 10.892h-8.492z" fill="#000" fill-opacity=".8"/></svg>