<svg width="60" height="60" fill="none" xmlns="http://www.w3.org/2000/svg"><path d="M45.292 53.82H9.68V18.444L21.943 6.258h22.72V19.78a.62.62 0 00.63.629c.392 0 .628-.236.628-.63V5.63a.62.62 0 00-.629-.63H21.707a.6.6 0 00-.393.157L8.657 17.814a.6.6 0 00-.157.393v36.164a.62.62 0 00.629.629h36.163a.62.62 0 00.63-.629c0-.393-.315-.55-.63-.55z" fill="#000" fill-opacity=".8"/><path d="M22.258 18.207V8.773a.62.62 0 00-.63-.628c-.392 0-.628.235-.628.628v8.884h-8.726a.62.62 0 00-.63.629c0 .393.236.629.63.629h9.433a.755.755 0 00.55-.708zM39.79 23.16H13.847a.62.62 0 00-.63.63c0 .392.237.628.63.628H39.79a.62.62 0 00.629-.629.62.62 0 00-.629-.629zm.55 5.268a.62.62 0 00-.629-.63H13.768a.62.62 0 00-.63.63c0 .393.236.629.63.629H39.71a.62.62 0 00.629-.63zm-26.493 4.166a.62.62 0 00-.63.63c0 .392.237.628.63.628h21.226a.62.62 0 00.629-.629c0-.393-.236-.629-.629-.629H13.847z" fill="#000" fill-opacity=".8"/><path d="M47.494 30.236c-4.56 0-8.57 2.83-10.142 7.075H15.497a.6.6 0 00-.393.157l-3.145 3.145a.6.6 0 00-.157.393c0 .157 0 .236.078.393l3.145 3.145a.6.6 0 00.393.157h3.223a.6.6 0 00.394-.157l1.808-1.808 1.965 1.808a.6.6 0 00.393.157h.786a.6.6 0 00.393-.157l1.809-1.808 1.808 1.808a.6.6 0 00.393.157h.786a.6.6 0 00.393-.157l1.808-1.808 1.808 1.808a.6.6 0 00.393.157h3.538c1.572 4.245 5.582 7.076 10.142 7.076 5.975 0 10.849-4.874 10.849-10.85 0-5.974-4.639-10.691-10.613-10.691zm0 20.44c-4.246 0-7.862-2.673-9.199-6.682a.591.591 0 00-.55-.393H34.05l-2.044-2.044a.6.6 0 00-.393-.158.6.6 0 00-.393.158l-2.123 1.965h-.314l-2.044-2.044a.617.617 0 00-.865 0l-2.044 2.044h-.314l-2.044-2.044a.617.617 0 00-.865 0l-2.044 2.044h-2.83l-2.595-2.594 2.595-2.595h22.09a.591.591 0 00.551-.393c1.337-3.93 4.953-6.603 9.12-6.603a9.663 9.663 0 019.67 9.67 9.663 9.663 0 01-9.67 9.67z" fill="#000" fill-opacity=".8"/><path d="M51.424 36.918a4.06 4.06 0 00-4.088 4.088 4.06 4.06 0 004.088 4.088 4.06 4.06 0 004.088-4.088 4.06 4.06 0 00-4.088-4.088zm0 6.997c-1.572 0-2.909-1.336-2.909-2.909 0-1.572 1.337-2.909 2.91-2.909 1.572 0 2.908 1.337 2.908 2.91a2.902 2.902 0 01-2.909 2.908zM40.34 8.773a.62.62 0 00-.63-.628h-9.433a.62.62 0 00-.63.628V19.78a.62.62 0 00.63.629h9.434a.62.62 0 00.629-.63V8.774zM39.16 19.23h-8.254V9.402h8.255v9.827z" fill="#000" fill-opacity=".8"/></svg>