<svg width="60" height="60" fill="none" xmlns="http://www.w3.org/2000/svg"><path d="M37.627 46.096c4.43 0 8.677-1.292 12.37-3.784l8.584 3.784c.092 0 .184.093.277.093a.706.706 0 00.461-.185.717.717 0 00.185-.739l-3.046-9.877c2.03-3.415 3.046-7.2 3.046-11.169 0-12.092-9.877-21.969-21.97-21.969-12.092 0-21.784 9.785-21.784 21.877 0 12.092 9.785 21.97 21.877 21.97zm0-42.461c11.354 0 20.584 9.23 20.584 20.584 0 3.785-1.015 7.477-3.046 10.708-.092.184-.092.37-.092.554l2.677 8.677-7.57-3.323a.565.565 0 00-.645.092c-3.508 2.492-7.57 3.785-11.908 3.785-11.354 0-20.585-9.231-20.585-20.585 0-11.354 9.231-20.492 20.585-20.492z" fill="#000" fill-opacity=".8"/><path d="M27.231 19.777c-2.4 0-4.338 1.938-4.338 4.43 0 2.493 1.938 4.431 4.338 4.431 2.4 0 4.43-1.938 4.43-4.43 0-2.493-2.03-4.431-4.43-4.431zm0 7.384c-1.662 0-2.954-1.384-2.954-3.046s1.385-3.046 2.954-3.046c1.57 0 3.046 1.384 3.046 3.046s-1.384 3.046-3.046 3.046zm6.739-3.046c0 2.4 1.938 4.431 4.43 4.431 2.4 0 4.339-1.938 4.339-4.43 0-2.493-1.939-4.431-4.339-4.431-2.492.092-4.43 2.03-4.43 4.43zm4.338-2.953c1.661 0 2.954 1.384 2.954 3.046 0 1.661-1.385 3.046-2.954 3.046-1.57 0-3.046-1.385-3.046-3.046 0-1.662 1.384-3.046 3.046-3.046zm11.077 7.384c2.4 0 4.43-1.938 4.43-4.43 0-2.493-1.938-4.431-4.43-4.431s-4.43 1.938-4.43 4.43c0 2.493 2.03 4.431 4.43 4.431zm0-7.384c1.661 0 3.046 1.384 3.046 3.046 0 1.661-1.385 3.046-3.046 3.046-1.662 0-3.046-1.385-3.046-3.046 0-1.662 1.384-3.046 3.046-3.046z" fill="#000" fill-opacity=".8"/><path d="M36.462 48.485c-3.785 3.507-8.677 5.354-13.847 5.354a20.51 20.51 0 01-11.907-3.785.567.567 0 00-.646-.092l-7.57 3.323 2.677-8.677c.093-.185 0-.37-.092-.554-1.938-3.23-3.046-6.923-3.046-10.708 0-8.492 5.077-15.969 12.923-19.107.37-.185.554-.554.37-.924-.185-.369-.555-.553-.924-.369C6 16.27.554 24.3.554 33.346c0 3.97 1.015 7.846 3.046 11.17L.74 54.391a.718.718 0 00.184.739.705.705 0 00.462.184c.092 0 .184 0 .277-.092l8.584-3.785a21.944 21.944 0 0012.37 3.785c5.446 0 10.707-2.03 14.769-5.723a.724.724 0 000-1.015c-.185-.185-.646-.185-.923 0z" fill="#000" fill-opacity=".8"/></svg>