<svg width="60" height="60" fill="none" xmlns="http://www.w3.org/2000/svg"><path d="M40.547 42.092c4.43 0 8.03-3.6 8.03-8.123 0-1.754.739-3.507 1.939-4.707 3.138-3.139 3.138-8.308 0-11.447-1.292-1.292-1.938-2.953-1.938-4.707 0-4.431-3.6-8.123-8.124-8.123-1.753 0-3.507-.739-4.707-1.939-3.139-3.138-8.308-3.138-11.446 0-1.293 1.293-2.954 1.939-4.708 1.939-4.43 0-8.123 3.6-8.123 8.123 0 1.754-.739 3.508-1.939 4.707-1.569 1.57-2.4 3.508-2.4 5.723 0 2.124.831 4.154 2.4 5.724 1.293 1.292 1.939 2.953 1.939 4.707 0 4.431 3.6 8.123 8.123 8.123 1.754 0 3.508.739 4.708 1.939 1.569 1.57 3.6 2.4 5.723 2.4 2.03 0 4.154-.83 5.723-2.4 1.384-1.292 3.046-1.939 4.8-1.939zm-15.139.924c-1.569-1.57-3.6-2.4-5.723-2.4-3.692 0-6.738-3.047-6.738-6.739 0-2.123-.831-4.154-2.4-5.723-1.293-1.292-1.939-2.954-1.939-4.708s.739-3.508 1.939-4.708c1.569-1.569 2.4-3.6 2.4-5.723 0-3.692 3.046-6.738 6.738-6.738 2.123 0 4.154-.83 5.723-2.4a7.24 7.24 0 014.708-1.754c1.754 0 3.415.646 4.708 1.939 1.569 1.477 3.6 2.307 5.723 2.307 3.692 0 6.646 3.046 6.646 6.739 0 2.123.83 4.154 2.4 5.723 2.584 2.585 2.584 6.83 0 9.508-1.57 1.569-2.4 3.6-2.4 5.723 0 3.692-3.046 6.738-6.739 6.738-2.123 0-4.153.83-5.723 2.4-2.492 2.492-6.738 2.492-9.323-.184z" fill="#000" fill-opacity=".8"/><path d="M46.455 23.538a.728.728 0 00-.739-.738.728.728 0 00-.738.738c0 8.216-6.739 14.954-15.047 15.047-8.215 0-14.953-6.739-15.046-15.047 0-2.307.462-4.43 1.477-6.461 2.677-5.17 8.031-8.492 13.754-8.492 6.277 0 12 3.969 14.123 9.969.092.369.554.554.923.461a.72.72 0 00.37-.369.588.588 0 000-.554C43.223 11.631 37.038 7.2 30.115 7.2c-3.138 0-6.185.923-8.861 2.585a16.048 16.048 0 00-5.908 6.738 16.997 16.997 0 00-1.57 7.108c0 9.046 7.385 16.43 16.431 16.43 9.047 0 16.247-7.476 16.247-16.523z" fill="#000" fill-opacity=".8"/><path d="M41.285 19.939c-.092-.277-.277-.462-.554-.462l-6.923-1.015-3.046-6.277c-.277-.462-1.015-.462-1.2 0l-3.139 6.277-6.83 1.015c-.277 0-.462.185-.554.462a.718.718 0 00.184.738l4.985 4.892-1.292 6.739c0 .277.092.554.277.646.184.185.461.185.738.092l6.185-3.23 6.184 3.23c.093.093.185.093.277.093.185 0 .277 0 .37-.093a.997.997 0 00.276-.646l-1.2-6.83 4.985-4.893c.277-.184.277-.462.277-.738zm-6.461 4.8c-.185.184-.277.369-.185.646l1.015 5.815-5.261-2.77c-.093-.091-.185-.091-.277-.091-.093 0-.185 0-.277.092l-5.262 2.77 1.016-5.816c0-.185 0-.462-.185-.646l-4.246-4.154 5.815-.831c.185 0 .462-.185.554-.37l2.585-5.26 2.584 5.26c.093.185.277.37.554.37l5.816.83-4.246 4.155zM25.5 47.63c-.369-.184-.738 0-.922.37l-4.154 8.862-2.585-7.2a.72.72 0 00-.37-.37.589.589 0 00-.553 0l-7.2 2.585 3.97-8.585c.184-.369 0-.738-.37-.923-.37-.184-.739 0-.923.37L7.685 52.892c-.092.277-.092.554.092.739a.718.718 0 00.739.184l8.123-2.953 2.954 8.123c.092.277.37.461.646.461.277 0 .554-.184.646-.369l4.8-10.338c.37-.554.185-.923-.184-1.108zm25.477 5.909c.185-.185.277-.462.093-.739l-4.431-9.415c-.185-.37-.554-.462-.923-.37-.37.185-.462.554-.37.923l3.693 7.939-7.2-2.585a.589.589 0 00-.554 0 .72.72 0 00-.37.37l-2.492 7.107-3.877-8.4c-.184-.369-.553-.461-.922-.369-.37.185-.462.554-.37.923L37.87 58.8c.092.277.369.37.646.37a.694.694 0 00.646-.462l2.954-8.123 8.123 2.954c.277.276.554.184.738 0z" fill="#000" fill-opacity=".8"/></svg>