<svg width="60" height="60" fill="none" xmlns="http://www.w3.org/2000/svg"><path d="M52.715 16.811C39.238 16.627 30.562 4.627 30.47 4.534a.692.692 0 00-1.107 0c-.093.093-8.77 12.093-22.247 12.277a.631.631 0 00-.646.647c0 .277-2.584 27.692 23.262 38.953.092 0 .184.093.277.093.092 0 .184 0 .277-.093 25.753-11.169 23.261-38.677 23.261-38.953-.184-.37-.461-.647-.83-.647zm-22.8 38.123C7.485 45.059 7.577 22.166 7.762 18.197c12-.462 20.03-9.415 22.153-12.092C32.038 8.78 40.07 17.734 52.07 18.196c.185 3.97.277 26.862-22.154 36.739z" fill="#000" fill-opacity=".8"/><path d="M47.361 21.796c-7.569-1.477-13.384-5.815-16.984-9.138-.23-.213-.462-.436-.462-.436l-.461.436c-3.508 3.323-9.416 7.661-16.985 9.138-.214.053-.59.134-.59.134s.036.45.036.605c.554 7.2 3.508 20.4 17.631 27.692.092.092.185.092.277.092.092 0 .185 0 .277-.092 14.215-7.292 16.948-20.51 17.63-27.692l.065-.66s-.018-.005-.434-.079zM29.915 48.842c-12.923-6.83-15.877-18.83-16.523-25.754 7.293-1.569 12.923-5.63 16.523-8.954 3.6 3.323 9.323 7.293 16.523 8.954-.553 6.923-3.6 18.923-16.523 25.754z" fill="#000" fill-opacity=".8"/><path d="M26.038 25.212v3.046h-2.861v10.707h14.4V28.258h-2.861v-3.046c0-2.4-1.939-4.431-4.431-4.431-2.493 0-4.247 2.03-4.247 4.43zm10.154 12.277H24.654v-7.847h11.631v7.847h-.093zm-8.677-12.277c0-1.662 1.293-3.047 2.954-3.047 1.662 0 3.047 1.385 3.047 3.047v3.046h-6v-3.046z" fill="#000" fill-opacity=".8"/><path d="M30.377 31.95h-.739v3.323h1.477V31.95h-.738z" fill="#000" fill-opacity=".8"/></svg>