<svg width="33" height="23" viewBox="0 0 33 23" fill="none" xmlns="http://www.w3.org/2000/svg">
<path d="M16.4999 0.5625C9.20825 0.5625 2.98117 5.09792 0.458252 11.5C2.98117 17.9021 9.20825 22.4375 16.4999 22.4375C23.7916 22.4375 30.0187 17.9021 32.5416 11.5C30.0187 5.09792 23.7916 0.5625 16.4999 0.5625ZM16.4999 18.7917C12.4749 18.7917 9.20825 15.525 9.20825 11.5C9.20825 7.475 12.4749 4.20833 16.4999 4.20833C20.5249 4.20833 23.7916 7.475 23.7916 11.5C23.7916 15.525 20.5249 18.7917 16.4999 18.7917ZM16.4999 7.125C14.0791 7.125 12.1249 9.07917 12.1249 11.5C12.1249 13.9208 14.0791 15.875 16.4999 15.875C18.9208 15.875 20.8749 13.9208 20.8749 11.5C20.8749 9.07917 18.9208 7.125 16.4999 7.125Z"/>
</svg>
