<svg width="28" height="28" viewBox="0 0 28 28" fill="none" xmlns="http://www.w3.org/2000/svg">
<path d="M26.19 0.780273H1.81C1.22369 0.780273 0.75 1.25396 0.75 1.84027V26.2203C0.75 26.8066 1.22369 27.2803 1.81 27.2803H26.19C26.7763 27.2803 27.25 26.8066 27.25 26.2203V1.84027C27.25 1.25396 26.7763 0.780273 26.19 0.780273ZM23.1292 8.51496H21.0126C19.353 8.51496 19.0317 9.30334 19.0317 10.4627V13.0166H22.9934L22.4767 17.0148H19.0317V27.2803H14.901V17.0182H11.4461V13.0166H14.901V10.0685C14.901 6.64671 16.9912 4.78177 20.0453 4.78177C21.5094 4.78177 22.7649 4.89109 23.1326 4.94077V8.51496H23.1292Z" fill="black" fill-opacity="0.5"/>
</svg>
