<svg width="27" height="28" viewBox="0 0 27 28" fill="none" xmlns="http://www.w3.org/2000/svg">
<path d="M24.375 0.875H1.86914C0.837891 0.875 0 1.72461 0 2.76758V25.2324C0 26.2754 0.837891 27.125 1.86914 27.125H24.375C25.4062 27.125 26.25 26.2754 26.25 25.2324V2.76758C26.25 1.72461 25.4062 0.875 24.375 0.875ZM7.93359 23.375H4.04297V10.8477H7.93945V23.375H7.93359ZM5.98828 9.13672C4.74023 9.13672 3.73242 8.12305 3.73242 6.88086C3.73242 5.63867 4.74023 4.625 5.98828 4.625C7.23047 4.625 8.24414 5.63867 8.24414 6.88086C8.24414 8.12891 7.23633 9.13672 5.98828 9.13672ZM22.5176 23.375H18.627V17.2812C18.627 15.8281 18.5977 13.959 16.6055 13.959C14.5781 13.959 14.2676 15.541 14.2676 17.1758V23.375H10.377V10.8477H14.1094V12.5586H14.1621C14.6836 11.5742 15.9551 10.5371 17.8477 10.5371C21.7852 10.5371 22.5176 13.1328 22.5176 16.5078V23.375Z" fill="black" fill-opacity="0.5"/>
</svg>
