<svg width="28" height="28" viewBox="0 0 28 28" fill="none" xmlns="http://www.w3.org/2000/svg">
<path d="M9.15137 14.1201C9.15137 12.7399 9.63444 11.5667 10.6006 10.6006C11.5667 9.63444 12.7399 9.15137 14.1201 9.15137C15.5003 9.15137 16.6735 9.63444 17.6396 10.6006C18.6058 11.5667 19.0889 12.7399 19.0889 14.1201C19.0889 15.5003 18.6058 16.6735 17.6396 17.6396C16.6735 18.6058 15.5003 19.0889 14.1201 19.0889C12.7399 19.0889 11.5667 18.6058 10.6006 17.6396C9.63444 16.6735 9.15137 15.5003 9.15137 14.1201ZM27.3701 12.4639V24.0576C27.3701 24.972 27.0466 25.7527 26.3997 26.3997C25.7527 27.0466 24.972 27.3701 24.0576 27.3701H4.18262C3.26823 27.3701 2.48755 27.0466 1.84058 26.3997C1.1936 25.7527 0.870117 24.972 0.870117 24.0576V4.18262C0.870117 3.26823 1.1936 2.48755 1.84058 1.84058C2.48755 1.1936 3.26823 0.870117 4.18262 0.870117H24.0576C24.972 0.870117 25.7527 1.1936 26.3997 1.84058C27.0466 2.48755 27.3701 3.26823 27.3701 4.18262V9.15137H20.7451C19.9688 8.13346 19.0026 7.3269 17.8467 6.73169C16.6908 6.13647 15.4486 5.83887 14.1201 5.83887C12.7917 5.83887 11.5495 6.13647 10.3936 6.73169C9.23763 7.3269 8.27148 8.13346 7.49512 9.15137H0.870117V12.4639H5.99414C5.89062 13.016 5.83887 13.568 5.83887 14.1201C5.83887 15.6211 6.2098 17.0056 6.95166 18.2737C7.69352 19.5417 8.69849 20.5467 9.96655 21.2886C11.2346 22.0304 12.6191 22.4014 14.1201 22.4014C15.6211 22.4014 17.0056 22.0304 18.2737 21.2886C19.5417 20.5467 20.5467 19.5417 21.2886 18.2737C22.0304 17.0056 22.4014 15.6211 22.4014 14.1201C22.4014 13.568 22.3496 13.016 22.2461 12.4639H27.3701Z" fill="black" fill-opacity="0.5"/>
</svg>
