<svg width="27" height="28" viewBox="0 0 27 28" fill="none" xmlns="http://www.w3.org/2000/svg">
<path d="M10.793 9.37695C10.793 8.08203 11.8418 7.0332 13.125 7.0332C14.4082 7.0332 15.457 8.08203 15.457 9.37695C15.457 10.666 14.4082 11.709 13.125 11.709C11.8418 11.709 10.793 10.6602 10.793 9.37695ZM26.25 3.6875V24.3125C26.25 25.8652 24.9902 27.125 23.4375 27.125H2.8125C1.25977 27.125 0 25.8652 0 24.3125V3.6875C0 2.13477 1.25977 0.875 2.8125 0.875H23.4375C24.9902 0.875 26.25 2.13477 26.25 3.6875ZM8.37305 9.37695C8.37305 11.9902 10.5059 14.1172 13.125 14.1172C15.7441 14.1172 17.877 11.9961 17.877 9.37695C17.877 6.75195 15.7441 4.625 13.125 4.625C10.5059 4.625 8.37305 6.74609 8.37305 9.37695ZM18.5977 14.6914C18.3281 14.1582 17.584 13.707 16.5996 14.4805C16.5996 14.4805 15.2695 15.5352 13.125 15.5352C10.9805 15.5352 9.65039 14.4805 9.65039 14.4805C8.66601 13.707 7.92188 14.1582 7.65234 14.6914C7.18945 15.6348 7.7168 16.0801 8.90625 16.8594C9.91992 17.5098 11.3203 17.75 12.2227 17.8438L11.4668 18.5996C10.4004 19.6543 9.38672 20.6797 8.67187 21.3945C7.64062 22.4258 9.29883 24.0781 10.3359 23.0703L13.1309 20.2637C14.1973 21.3301 15.2227 22.3555 15.9258 23.0703C16.957 24.0781 18.6211 22.4434 17.6016 21.3945L14.8066 18.5996L14.0449 17.8438C14.9531 17.75 16.3359 17.498 17.3379 16.8594C18.5332 16.0801 19.0547 15.6289 18.5977 14.6914Z" fill="black" fill-opacity="0.5"/>
</svg>
