<svg width="28" height="28" viewBox="0 0 28 28" fill="none" xmlns="http://www.w3.org/2000/svg">
<path d="M16.3588 21.0505V18.3423C16.3588 17.7673 16.192 17.4798 15.8585 17.4798C15.663 17.4798 15.4733 17.5718 15.2893 17.7558V21.6198C15.4733 21.8038 15.663 21.8958 15.8585 21.8958C16.192 21.8958 16.3588 21.614 16.3588 21.0505ZM19.5327 18.946H20.6712V18.3595C20.6712 17.773 20.4815 17.4798 20.102 17.4798C19.7225 17.4798 19.5327 17.773 19.5327 18.3595V18.946ZM9.68307 14.3576V15.565H8.30308V22.8617H7.02659V15.565H5.68111V14.3576H9.68307ZM13.1503 16.531V22.8617H11.9946V22.1717C11.5461 22.6892 11.1091 22.948 10.6836 22.948C10.3041 22.948 10.0626 22.787 9.95907 22.465C9.89007 22.2695 9.85557 21.959 9.85557 21.5335V16.531H10.9941V21.1885C10.9941 21.4645 10.9998 21.614 11.0113 21.637C11.0228 21.8095 11.1091 21.8958 11.2701 21.8958C11.5001 21.8958 11.7416 21.7175 11.9946 21.361V16.531H13.1503ZM17.4973 18.4458V20.9643C17.4973 21.5623 17.457 21.982 17.3765 22.2235C17.2385 22.7065 16.9338 22.948 16.4623 22.948C16.0598 22.948 15.6688 22.7122 15.2893 22.2407V22.8617H14.1335V14.3576H15.2893V17.1348C15.6573 16.6748 16.0483 16.4448 16.4623 16.4448C16.9338 16.4448 17.2385 16.6863 17.3765 17.1693C17.457 17.4108 17.4973 17.8363 17.4973 18.4458ZM21.827 20.671V20.8263C21.827 21.1598 21.8155 21.407 21.7925 21.568C21.758 21.821 21.6717 22.051 21.5337 22.258C21.2232 22.718 20.7632 22.948 20.1537 22.948C19.5557 22.948 19.09 22.7295 18.7565 22.2925C18.515 21.982 18.3943 21.4875 18.3943 20.809V18.5838C18.3943 17.9053 18.5093 17.4108 18.7393 17.1003C19.0728 16.6633 19.5327 16.4448 20.1192 16.4448C20.7057 16.4448 21.1542 16.6633 21.4647 17.1003C21.7062 17.4338 21.827 17.9283 21.827 18.5838V19.8948H19.5327V21.016C19.5327 21.6025 19.7282 21.8958 20.1192 21.8958C20.3952 21.8958 20.5677 21.7463 20.6367 21.4473C20.6367 21.4358 20.6396 21.3955 20.6454 21.3265C20.6511 21.2575 20.654 21.1626 20.654 21.0419V20.671H21.827ZM14.0473 6.45712V9.1481C14.0473 9.7346 13.8633 10.0278 13.4953 10.0278C13.1273 10.0278 12.9433 9.7346 12.9433 9.1481V6.45712C12.9433 5.85913 13.1273 5.56013 13.4953 5.56013C13.8633 5.56013 14.0473 5.85913 14.0473 6.45712ZM23.2415 18.7563C23.2415 16.7208 23.1322 15.2258 22.9137 14.2713C22.7987 13.7653 22.5515 13.3427 22.172 13.0034C21.7925 12.6642 21.3555 12.4658 20.861 12.4083C19.297 12.2358 16.928 12.1496 13.754 12.1496C10.5916 12.1496 8.22833 12.2358 6.66435 12.4083C6.15835 12.4658 5.71848 12.6642 5.34473 13.0034C4.97099 13.3427 4.72661 13.7653 4.61161 14.2713C4.38162 15.2718 4.26662 16.7668 4.26662 18.7563C4.26662 20.7803 4.38162 22.2752 4.61161 23.2412C4.72661 23.7357 4.97099 24.1555 5.34473 24.5005C5.71848 24.8455 6.1526 25.0467 6.6471 25.1042C8.22259 25.2767 10.5916 25.363 13.754 25.363C16.9165 25.363 19.2855 25.2767 20.861 25.1042C21.3555 25.0467 21.7896 24.8455 22.1634 24.5005C22.5371 24.1555 22.7815 23.7357 22.8965 23.2412C23.1265 22.2752 23.2415 20.7803 23.2415 18.7563ZM10.2178 7.52661L11.7703 2.42065H10.4766L9.59682 5.78438L8.68258 2.42065H7.33709C7.41759 2.68515 7.54984 3.0819 7.73384 3.61089L8.14784 4.80113C8.55033 5.98563 8.81483 6.89412 8.94133 7.52661V10.9938H10.2178V7.52661ZM15.203 8.92385V6.68137C15.203 6.01438 15.0823 5.51413 14.8408 5.18063C14.5073 4.74363 14.0588 4.52514 13.4953 4.52514C12.9088 4.52514 12.4603 4.74363 12.1498 5.18063C11.9083 5.51413 11.7876 6.01438 11.7876 6.68137V8.92385C11.7876 9.59085 11.9083 10.0911 12.1498 10.4246C12.4603 10.8616 12.9088 11.0801 13.4953 11.0801C14.0588 11.0801 14.5073 10.8616 14.8408 10.4246C15.0823 10.1141 15.203 9.61385 15.203 8.92385ZM18.3253 10.9938H19.481V4.61139H18.3253V9.4931C18.0723 9.8496 17.8308 10.0278 17.6008 10.0278C17.4283 10.0278 17.3363 9.93584 17.3248 9.75185C17.3133 9.72885 17.3075 9.57935 17.3075 9.30335V4.61139H16.1518V9.6656C16.1518 10.0911 16.1863 10.4073 16.2553 10.6143C16.3818 10.9248 16.629 11.0801 16.997 11.0801C17.411 11.0801 17.8538 10.8213 18.3253 10.3038V10.9938ZM27.0019 5.74988V22.3097C27.0019 23.6782 26.9974 25.4224 26.0257 26.3941C25.0539 27.3659 23.4025 27.2777 22.034 27.2777H5.47411C4.10562 27.2777 2.3166 27.3659 1.34486 26.3941C0.373118 25.4224 0.506146 23.6782 0.506146 22.3097V5.74988C0.506146 4.38139 0.373118 2.63645 1.34486 1.6647C2.3166 0.692961 4.10562 0.781915 5.47411 0.781915H22.034C23.4025 0.781915 25.0539 0.692961 26.0257 1.6647C26.9974 2.63645 27.0019 4.38139 27.0019 5.74988Z"/>
</svg>
