<svg width="35" height="38" viewBox="0 0 35 38" fill="none" xmlns="http://www.w3.org/2000/svg">
<path d="M28.4939 34.5999H25.1911C25.0159 34.5999 24.8479 34.5303 24.724 34.4064C24.6001 34.2825 24.5305 34.1145 24.5305 33.9393C24.5305 33.7641 24.6001 33.5961 24.724 33.4722C24.8479 33.3484 25.0159 33.2788 25.1911 33.2788H28.4939C29.895 33.2772 31.2382 32.7199 32.2289 31.7292C33.2196 30.7385 33.7769 29.3953 33.7785 27.9942V18.7463C33.7769 17.3452 33.2196 16.002 32.2289 15.0113C31.2382 14.0206 29.895 13.4633 28.4939 13.4618H25.1911C25.0159 13.4618 24.8479 13.3922 24.724 13.2683C24.6001 13.1444 24.5305 12.9764 24.5305 12.8012C24.5305 12.626 24.6001 12.458 24.724 12.3341C24.8479 12.2102 25.0159 12.1406 25.1911 12.1406H28.4939C30.2453 12.1425 31.9243 12.8391 33.1627 14.0775C34.4011 15.3159 35.0977 16.995 35.0996 18.7463V27.9942C35.0977 29.7456 34.4011 31.4246 33.1627 32.663C31.9243 33.9014 30.2453 34.598 28.4939 34.5999Z" fill="#DEC377"/>
<path d="M28.4939 30.6365H25.1911C25.0159 30.6365 24.8479 30.5669 24.724 30.443C24.6001 30.3191 24.5305 30.1511 24.5305 29.9759C24.5305 29.8007 24.6001 29.6327 24.724 29.5088C24.8479 29.3849 25.0159 29.3153 25.1911 29.3153H28.4939C28.8443 29.3153 29.1803 29.1762 29.4281 28.9284C29.6759 28.6806 29.8151 28.3446 29.8151 27.9942V18.7463C29.8151 18.3959 29.6759 18.0598 29.4281 17.8121C29.1803 17.5643 28.8443 17.4251 28.4939 17.4251H25.1911C25.0159 17.4251 24.8479 17.3555 24.724 17.2317C24.6001 17.1078 24.5305 16.9398 24.5305 16.7646C24.5305 16.5894 24.6001 16.4214 24.724 16.2975C24.8479 16.1736 25.0159 16.104 25.1911 16.104H28.4939C29.1947 16.104 29.8668 16.3824 30.3623 16.8779C30.8578 17.3734 31.1362 18.0455 31.1362 18.7463V27.9942C31.1362 28.695 30.8578 29.3671 30.3623 29.8626C29.8668 30.3581 29.1947 30.6365 28.4939 30.6365Z" fill="#DEC377"/>
<path d="M23.8698 37.2421H2.7317C2.20612 37.2421 1.70207 37.0333 1.33043 36.6617C0.958786 36.29 0.75 35.786 0.75 35.2604V11.48C0.75 10.9544 0.958786 10.4504 1.33043 10.0787C1.70207 9.70708 2.20612 9.49829 2.7317 9.49829H23.8698C24.3954 9.49829 24.8995 9.70708 25.2711 10.0787C25.6428 10.4504 25.8515 10.9544 25.8515 11.48V35.2604C25.8515 35.786 25.6428 36.29 25.2711 36.6617C24.8995 37.0333 24.3954 37.2421 23.8698 37.2421ZM2.7317 10.8194C2.55651 10.8194 2.38849 10.889 2.26461 11.0129C2.14073 11.1368 2.07113 11.3048 2.07113 11.48V35.2604C2.07113 35.4356 2.14073 35.6036 2.26461 35.7275C2.38849 35.8514 2.55651 35.921 2.7317 35.921H23.8698C24.045 35.921 24.213 35.8514 24.3369 35.7275C24.4608 35.6036 24.5304 35.4356 24.5304 35.2604V11.48C24.5304 11.3048 24.4608 11.1368 24.3369 11.0129C24.213 10.889 24.045 10.8194 23.8698 10.8194H2.7317Z" fill="#DEC377"/>
<path d="M8.01612 8.17711C7.88549 8.17708 7.7578 8.13832 7.6492 8.06574C7.5406 7.99315 7.45595 7.88999 7.40597 7.76931C7.35598 7.64862 7.3429 7.51583 7.36838 7.38771C7.39385 7.25959 7.45674 7.1419 7.5491 7.04952C7.7263 6.90715 7.86931 6.72682 7.96756 6.52184C8.06582 6.31686 8.11683 6.09244 8.11683 5.86512C8.11683 5.63781 8.06582 5.41339 7.96756 5.2084C7.86931 5.00342 7.7263 4.8231 7.5491 4.68073C7.25079 4.41428 7.01213 4.08785 6.84871 3.72278C6.6853 3.35772 6.60083 2.96226 6.60083 2.56229C6.60083 2.16232 6.6853 1.76686 6.84871 1.40179C7.01213 1.03673 7.25079 0.710292 7.5491 0.443851C7.61003 0.38076 7.68292 0.330436 7.76351 0.295817C7.84411 0.261197 7.93079 0.242975 8.0185 0.242212C8.10621 0.24145 8.19319 0.258164 8.27437 0.291378C8.35555 0.324592 8.4293 0.373641 8.49133 0.435663C8.55335 0.497685 8.6024 0.571439 8.63561 0.65262C8.66883 0.733801 8.68554 0.820785 8.68478 0.908494C8.68402 0.996204 8.66579 1.08288 8.63117 1.16348C8.59655 1.24407 8.54623 1.31696 8.48314 1.37789C8.30593 1.52026 8.16293 1.70059 8.06467 1.90557C7.96642 2.11055 7.91541 2.33497 7.91541 2.56229C7.91541 2.7896 7.96642 3.01402 8.06467 3.21901C8.16293 3.42399 8.30593 3.60431 8.48314 3.74668C8.78144 4.01313 9.02011 4.33956 9.18352 4.70463C9.34694 5.06969 9.43141 5.46515 9.43141 5.86512C9.43141 6.26509 9.34694 6.66055 9.18352 7.02562C9.02011 7.39068 8.78144 7.71712 8.48314 7.98356C8.35929 8.10745 8.1913 8.17707 8.01612 8.17711Z" fill="#DEC377"/>
<path d="M13.3008 8.17711C13.1702 8.17708 13.0425 8.13832 12.9339 8.06574C12.8253 7.99315 12.7406 7.88999 12.6906 7.76931C12.6407 7.64862 12.6276 7.51583 12.653 7.38771C12.6785 7.25959 12.7414 7.1419 12.8338 7.04952C13.011 6.90715 13.154 6.72682 13.2522 6.52184C13.3505 6.31686 13.4015 6.09244 13.4015 5.86512C13.4015 5.63781 13.3505 5.41339 13.2522 5.2084C13.154 5.00342 13.011 4.8231 12.8338 4.68073C12.5355 4.41428 12.2968 4.08785 12.1334 3.72278C11.97 3.35772 11.8855 2.96226 11.8855 2.56229C11.8855 2.16232 11.97 1.76686 12.1334 1.40179C12.2968 1.03673 12.5355 0.710292 12.8338 0.443851C12.8947 0.38076 12.9676 0.330436 13.0482 0.295817C13.1288 0.261197 13.2155 0.242975 13.3032 0.242212C13.3909 0.24145 13.4779 0.258164 13.559 0.291378C13.6402 0.324592 13.714 0.373641 13.776 0.435663C13.838 0.497685 13.8871 0.571439 13.9203 0.65262C13.9535 0.733801 13.9702 0.820785 13.9694 0.908494C13.9687 0.996204 13.9505 1.08288 13.9158 1.16348C13.8812 1.24407 13.8309 1.31696 13.7678 1.37789C13.5906 1.52026 13.4476 1.70059 13.3493 1.90557C13.2511 2.11055 13.2001 2.33497 13.2001 2.56229C13.2001 2.7896 13.2511 3.01402 13.3493 3.21901C13.4476 3.42399 13.5906 3.60431 13.7678 3.74668C14.0661 4.01313 14.3048 4.33956 14.4682 4.70463C14.6316 5.06969 14.7161 5.46515 14.7161 5.86512C14.7161 6.26509 14.6316 6.66055 14.4682 7.02562C14.3048 7.39068 14.0661 7.71712 13.7678 7.98356C13.644 8.10745 13.476 8.17707 13.3008 8.17711Z" fill="#DEC377"/>
<path d="M18.5852 8.17711C18.4546 8.17708 18.3269 8.13832 18.2183 8.06574C18.1097 7.99315 18.025 7.88999 17.9751 7.76931C17.9251 7.64862 17.912 7.51583 17.9375 7.38771C17.9629 7.25959 18.0258 7.1419 18.1182 7.04952C18.2954 6.90715 18.4384 6.72682 18.5367 6.52184C18.6349 6.31686 18.6859 6.09244 18.6859 5.86512C18.6859 5.63781 18.6349 5.41339 18.5367 5.2084C18.4384 5.00342 18.2954 4.8231 18.1182 4.68073C17.8199 4.41428 17.5812 4.08785 17.4178 3.72278C17.2544 3.35772 17.1699 2.96226 17.1699 2.56229C17.1699 2.16232 17.2544 1.76686 17.4178 1.40179C17.5812 1.03673 17.8199 0.710292 18.1182 0.443851C18.1791 0.38076 18.252 0.330436 18.3326 0.295817C18.4132 0.261197 18.4999 0.242975 18.5876 0.242212C18.6753 0.24145 18.7623 0.258164 18.8435 0.291378C18.9246 0.324592 18.9984 0.373641 19.0604 0.435663C19.1224 0.497685 19.1715 0.571439 19.2047 0.65262C19.2379 0.733801 19.2546 0.820785 19.2539 0.908494C19.2531 0.996204 19.2349 1.08288 19.2003 1.16348C19.1656 1.24407 19.1153 1.31696 19.0522 1.37789C18.875 1.52026 18.732 1.70059 18.6338 1.90557C18.5355 2.11055 18.4845 2.33497 18.4845 2.56229C18.4845 2.7896 18.5355 3.01402 18.6338 3.21901C18.732 3.42399 18.875 3.60431 19.0522 3.74668C19.3505 4.01313 19.5892 4.33956 19.7526 4.70463C19.916 5.06969 20.0005 5.46515 20.0005 5.86512C20.0005 6.26509 19.916 6.66055 19.7526 7.02562C19.5892 7.39068 19.3505 7.71712 19.0522 7.98356C18.9284 8.10745 18.7604 8.17707 18.5852 8.17711Z" fill="#DEC377"/>
</svg>
