<svg width="28" height="28" fill="none" xmlns="http://www.w3.org/2000/svg"><path d="M9.151 14.12c0-1.38.483-2.553 1.45-3.52.966-.966 2.139-1.449 3.52-1.449 1.38 0 2.553.483 3.519 1.45.966.966 1.449 2.139 1.449 3.52 0 1.38-.483 2.553-1.45 3.519-.965.966-2.139 1.449-3.519 1.449-1.38 0-2.553-.483-3.52-1.45-.966-.965-1.449-2.139-1.449-3.519zm18.22-1.656v11.594c0 .914-.324 1.695-.971 2.342a3.192 3.192 0 01-2.342.97H4.183a3.192 3.192 0 01-2.342-.97 3.192 3.192 0 01-.97-2.342V4.183c0-.915.323-1.695.97-2.342A3.191 3.191 0 014.183.87h19.875c.914 0 1.695.323 2.342.97s.97 1.427.97 2.342V9.15h-6.625a8.476 8.476 0 00-2.898-2.42 8.023 8.023 0 00-3.727-.892c-1.328 0-2.57.297-3.726.893a8.476 8.476 0 00-2.899 2.42H.87v3.312h5.124a8.968 8.968 0 00-.155 1.656 8.08 8.08 0 001.113 4.154 8.283 8.283 0 003.015 3.015A8.08 8.08 0 0014.12 22.4a8.08 8.08 0 004.154-1.112 8.284 8.284 0 003.015-3.015A8.08 8.08 0 0022.4 14.12a8.97 8.97 0 00-.155-1.656h5.124z"/></svg>