<svg width="27" height="28" fill="none" xmlns="http://www.w3.org/2000/svg"><path d="M10.793 9.377a2.34 2.34 0 012.332-2.344 2.34 2.34 0 012.332 2.344 2.334 2.334 0 01-2.332 2.332 2.338 2.338 0 01-2.332-2.332zm15.457-5.69v20.625a2.813 2.813 0 01-2.813 2.813H2.813A2.813 2.813 0 010 24.312V3.688A2.813 2.813 0 012.813.876h20.625a2.813 2.813 0 012.812 2.813zM8.373 9.378c0 2.613 2.133 4.74 4.752 4.74 2.62 0 4.752-2.12 4.752-4.74a4.751 4.751 0 10-9.504 0zm10.225 5.314c-.27-.533-1.014-.984-1.998-.21 0 0-1.33 1.054-3.475 1.054S9.65 14.48 9.65 14.48c-.984-.773-1.728-.322-1.998.211-.463.944.065 1.39 1.254 2.168 1.014.65 2.414.891 3.317.985l-.756.756c-1.067 1.054-2.08 2.08-2.795 2.794-1.031 1.032.627 2.684 1.664 1.676l2.795-2.806c1.066 1.066 2.092 2.091 2.795 2.806 1.031 1.008 2.695-.627 1.676-1.675L14.807 18.6l-.762-.756c.908-.094 2.29-.346 3.293-.985 1.195-.779 1.717-1.23 1.26-2.168z" fill="#000" fill-opacity=".5"/></svg>