<svg width="28" height="28" fill="none" xmlns="http://www.w3.org/2000/svg"><path d="M27.5 24.5v-21c0-1.65-1.355-3-3.008-3H3.508C1.783.5.5 1.78.5 3.5v21c0 1.722 1.282 3 3.007 3h20.985a3.012 3.012 0 003.008-3zm-5.724-8.09s1.698 1.676 2.116 2.453c.012.017.017.032.021.038.17.285.213.51.128.675-.141.274-.621.412-.785.424h-2.998c-.21 0-.645-.054-1.173-.419-.405-.282-.806-.748-1.195-1.203-.582-.675-1.087-1.26-1.593-1.26a.574.574 0 00-.19.032c-.385.123-.874.67-.874 2.133 0 .457-.36.718-.615.718h-1.374c-.468 0-2.905-.163-5.064-2.442-2.649-2.79-5.028-8.386-5.049-8.436-.15-.361.16-.557.498-.557h3.03c.407 0 .537.245.63.466.105.25.501 1.261 1.149 2.399 1.054 1.849 1.704 2.602 2.221 2.602a.567.567 0 00.276-.073c.677-.374.551-2.786.521-3.284 0-.095-.002-1.079-.346-1.551-.25-.342-.671-.473-.926-.522.104-.143.24-.26.399-.339.463-.231 1.299-.264 2.13-.264h.462c.901.012 1.135.07 1.461.153.659.157.672.585.614 2.04-.017.414-.035.883-.035 1.434 0 .118-.005.249-.005.384-.02.744-.045 1.586.48 1.93a.433.433 0 00.227.066c.183 0 .73 0 2.214-2.545.652-1.123 1.155-2.45 1.19-2.548a.792.792 0 01.221-.275.52.52 0 01.25-.058h3.562c.39 0 .654.058.704.207.085.238-.017.966-1.645 3.165l-.724.96c-1.476 1.931-1.476 2.03.087 3.497z"/></svg>