<svg width="28" height="28" fill="none" xmlns="http://www.w3.org/2000/svg"><path d="M16.359 21.05v-2.708c0-.575-.167-.862-.5-.862-.196 0-.386.092-.57.276v3.864c.184.184.374.276.57.276.333 0 .5-.282.5-.846zm3.174-2.104h1.138v-.587c0-.586-.19-.88-.569-.88-.38 0-.57.294-.57.88v.587zm-9.85-4.588v1.207h-1.38v7.297H7.027v-7.297H5.68v-1.207h4.002zm3.467 2.173v6.33h-1.155v-.69c-.449.518-.886.777-1.311.777-.38 0-.621-.161-.725-.483-.069-.195-.103-.506-.103-.931V16.53h1.138v4.658c0 .276.006.425.017.448.012.172.098.259.26.259.23 0 .47-.178.724-.535v-4.83h1.155zm4.347 1.915v2.518c0 .598-.04 1.018-.12 1.26-.139.482-.443.724-.915.724-.402 0-.793-.236-1.173-.707v.62h-1.155v-8.503h1.155v2.777c.368-.46.76-.69 1.173-.69.472 0 .776.241.915.724.08.242.12.667.12 1.277zm4.33 2.225v.155c0 .334-.012.581-.035.742-.034.253-.12.483-.258.69-.31.46-.77.69-1.38.69-.598 0-1.064-.218-1.398-.655-.241-.311-.362-.805-.362-1.484v-2.225c0-.679.115-1.173.345-1.484.334-.437.794-.655 1.38-.655.587 0 1.035.218 1.346.655.241.334.362.828.362 1.484v1.31h-2.294v1.122c0 .587.195.88.586.88.276 0 .449-.15.518-.449l.008-.12a3.5 3.5 0 00.009-.285v-.371h1.173zm-7.78-14.214v2.691c0 .587-.184.88-.552.88-.368 0-.552-.293-.552-.88v-2.69c0-.599.184-.898.552-.898.368 0 .552.3.552.897zm9.194 12.3c0-2.036-.109-3.531-.327-4.486a2.36 2.36 0 00-.742-1.268 2.33 2.33 0 00-1.311-.595c-1.564-.172-3.933-.258-7.107-.258-3.162 0-5.526.086-7.09.258a2.303 2.303 0 00-1.32.595 2.39 2.39 0 00-.732 1.268c-.23 1-.345 2.496-.345 4.485 0 2.024.115 3.52.345 4.485.115.495.359.915.733 1.26.373.345.808.546 1.302.603 1.576.173 3.945.259 7.107.259 3.162 0 5.531-.086 7.107-.259a2.263 2.263 0 001.302-.604c.374-.345.619-.764.733-1.259.23-.966.345-2.46.345-4.485zM10.218 7.526L11.77 2.42h-1.293l-.88 3.363-.914-3.363H7.337c.08.264.213.66.397 1.19l.414 1.19c.402 1.185.667 2.093.793 2.726v3.467h1.277V7.527zm4.985 1.397V6.68c0-.667-.12-1.167-.362-1.5-.334-.437-.782-.656-1.346-.656-.586 0-1.035.219-1.345.656-.242.333-.362.833-.362 1.5v2.243c0 .667.12 1.167.362 1.5.31.438.759.656 1.345.656.564 0 1.012-.218 1.346-.655.241-.31.362-.811.362-1.501zm3.122 2.07h1.156V4.61h-1.156v4.882c-.253.357-.494.535-.724.535-.173 0-.265-.092-.276-.276-.012-.023-.017-.173-.017-.449V4.611h-1.156v5.055c0 .425.034.741.103.948.127.31.374.466.742.466.414 0 .857-.259 1.328-.776v.69zm8.677-5.244v16.56c0 1.368-.005 3.112-.976 4.084-.972.972-2.623.884-3.992.884H5.474c-1.368 0-3.157.088-4.13-.884-.97-.972-.838-2.716-.838-4.084V5.75c0-1.369-.133-3.114.839-4.085.972-.972 2.76-.883 4.13-.883h16.559c1.369 0 3.02-.089 3.992.883.971.971.976 2.716.976 4.085z" fill="#000" fill-opacity=".5"/></svg>