<svg width="70" height="70" viewBox="0 0 70 70" fill="none" xmlns="http://www.w3.org/2000/svg">
<path d="M29.5314 42.001V39.185C29.9054 38.8696 30.2794 38.558 30.6534 38.25C31.0274 37.942 31.4014 37.634 31.7754 37.326C32.648 36.6 33.396 35.929 34.0194 35.313C34.65 34.6896 35.134 34.0883 35.4714 33.509C35.8087 32.9296 35.9774 32.3466 35.9774 31.76C35.9774 31.1953 35.8124 30.77 35.4824 30.484C35.1597 30.1906 34.672 30.044 34.0194 30.044C33.6747 30.044 33.3227 30.088 32.9634 30.176C32.604 30.264 32.2447 30.3813 31.8854 30.528C31.526 30.6746 31.1704 30.847 30.8184 31.045C30.4664 31.2356 30.1254 31.4446 29.7954 31.672L29.4434 27.668C29.788 27.514 30.1694 27.371 30.5874 27.239C31.0054 27.0996 31.449 26.975 31.9184 26.865C32.3877 26.755 32.8754 26.6706 33.3814 26.612C33.8874 26.546 34.4007 26.513 34.9214 26.513C36.0947 26.513 37.0847 26.7 37.8914 27.074C38.7054 27.4406 39.3177 27.976 39.7284 28.68C40.1464 29.3766 40.3554 30.2126 40.3554 31.188C40.3554 31.936 40.2124 32.6803 39.9264 33.421C39.6404 34.1543 39.193 34.8766 38.5844 35.588C37.983 36.2993 37.2094 37.0033 36.2634 37.7L34.2504 39.207L33.7554 38.393H36.3074C37.004 38.393 37.7007 38.393 38.3974 38.393C39.094 38.393 39.787 38.393 40.4764 38.393V42.001H29.5314Z" fill="#DEC377"/>
<circle cx="35" cy="35.001" r="34.5" stroke="#DEC377" stroke-opacity="0.75"/>
</svg>
