<svg width="70" height="70" viewBox="0 0 70 70" fill="none" xmlns="http://www.w3.org/2000/svg">
<path d="M31.1742 32.87L30.2062 29.625C31.2549 29.141 32.3036 28.6607 33.3522 28.184C34.4082 27.7 35.4606 27.216 36.5092 26.732L36.3442 30.472C35.4862 30.868 34.6246 31.2677 33.7592 31.671C32.9012 32.067 32.0396 32.4667 31.1742 32.87ZM34.2982 42C34.2982 41.2227 34.2982 40.471 34.2982 39.745C34.2982 39.019 34.2982 38.1977 34.2982 37.281V33.013C34.2982 32.2723 34.2982 31.5353 34.2982 30.802C34.2982 30.0613 34.2982 29.3207 34.2982 28.58L36.5092 26.732L38.5552 26.842C38.5552 27.7293 38.5552 28.613 38.5552 29.493C38.5552 30.3657 38.5552 31.2457 38.5552 32.133V37.281C38.5552 38.1977 38.5552 39.019 38.5552 39.745C38.5552 40.471 38.5552 41.2227 38.5552 42H34.2982Z" fill="#DEC377"/>
<circle cx="35" cy="35" r="34.5" stroke="#DEC377" stroke-opacity="0.75"/>
</svg>
