<svg width="40" height="40" fill="none" xmlns="http://www.w3.org/2000/svg"><path d="M13.513 17.63h10.474a.623.623 0 00.625-.626V15.26a5.862 5.862 0 10-11.724 0v1.745a.624.624 0 00.625.625zm.625-2.371a4.612 4.612 0 019.224 0v1.12h-9.224v-1.12z" fill="#DEC377"/><path d="M32.756 20.637v-4.175h2.869a.625.625 0 00.617-.723 15.789 15.789 0 00-3.486-6.924v-6.94a.625.625 0 00-.625-.625h-5.819a.625.625 0 00-.625.625v1.564a28.433 28.433 0 00-6.82-2.178.638.638 0 00-.235 0C3.248 4.222 1.276 15.625 1.258 15.74a.625.625 0 00.617.722h2.869v15.044H3.619a.623.623 0 00-.625.625v3.494a.625.625 0 00.625.625H23.02a9.367 9.367 0 109.736-15.613zM5.37 15.212H2.668c.7-2.433 3.88-10.305 16.082-12.7a26.422 26.422 0 017.27 2.491.625.625 0 00.918-.553V2.5h4.568v6.544c0 .148.053.292.15.405a15.832 15.832 0 013.175 5.764h-2.7a.626.626 0 00-.625.625v4.406c-.043-.01-.088-.013-.131-.023a9.205 9.205 0 00-1.044-.166 9.417 9.417 0 00-.956-.055 9.24 9.24 0 00-4.85 1.363.617.617 0 00-.538-.325h-5.222l-.015-.003-.015.003h-5.223a.625.625 0 00-.625.625v9.843H5.994V15.838a.624.624 0 00-.625-.625zm17.297 7.63a9.507 9.507 0 00-.39.426c-.1.116-.2.231-.296.352-.118.15-.227.307-.335.464-.086.125-.174.249-.254.378-.1.164-.19.333-.281.502-.07.132-.145.262-.209.397-.084.177-.155.36-.227.542-.054.136-.113.268-.16.406-.067.194-.12.394-.173.593-.036.133-.08.262-.11.397-.05.224-.082.454-.116.683-.017.114-.043.226-.056.341-.039.35-.059.7-.059 1.052a9.415 9.415 0 00.086 1.216c.034.263.08.525.135.784.01.043.013.088.023.131h-.869v-9.218h3.87c-.087.073-.162.157-.245.233a9.66 9.66 0 00-.334.32zm-8.529 8.664v-9.218h3.988v9.218h-3.988zM4.244 35v-2.244h14.494l.012.003.012-.003h1.867c.079.203.165.403.258.6.004.01.01.018.014.027.142.297.3.586.473.866l.082.137c.133.21.272.415.421.614H4.244zm25.131 2.5a8.12 8.12 0 01-5.4-14.187 8.145 8.145 0 016.052-2.037 8.125 8.125 0 01-.652 16.224z" fill="#DEC377"/><path d="M30.109 28.995h-1.223a1.332 1.332 0 010-2.663h2.446a.625.625 0 100-1.25H30V23.75a.625.625 0 00-1.25 0v1.346a2.576 2.576 0 00.136 5.149h1.223a1.087 1.087 0 110 2.173h-2.69a.625.625 0 100 1.25h1.331V35A.625.625 0 1030 35v-1.332h.109a2.337 2.337 0 100-4.673z" fill="#DEC377"/></svg>