<svg width="40" height="40" fill="none" xmlns="http://www.w3.org/2000/svg"><g clip-path="url(#clip0)"><path d="M36.41 26H26v-4h-2.666v-4.162c0-1.425.614-2.764 1.644-3.583A7.949 7.949 0 0028 8a8.01 8.01 0 00-2.675-5.97A8.037 8.037 0 0019.062.053c-3.569.406-6.508 3.281-6.988 6.836-.38 2.816.705 5.555 2.903 7.329 1.058.854 1.69 2.253 1.69 3.742V22H14v4H3.59C2.714 26 2 26.713 2 27.59v7.487c0 .876.713 1.59 1.59 1.59h.47A4.003 4.003 0 008 40.001h24.001a4.004 4.004 0 003.94-3.334h.47c.877 0 1.591-.713 1.591-1.59V27.59A1.595 1.595 0 0036.41 26zM15.814 13.18c-1.831-1.477-2.736-3.763-2.417-6.112.4-2.96 2.846-5.351 5.817-5.69 1.933-.218 3.788.364 5.224 1.646A6.673 6.673 0 0126.668 8c0 2.04-.918 3.94-2.52 5.212-1.364 1.085-2.147 2.771-2.147 4.626V22h-4v-4.04c-.001-1.915-.798-3.658-2.187-4.78zm-.48 10.153h9.333V26h-9.334v-2.667zM32 38.667H8a2.67 2.67 0 01-2.582-2h29.165a2.67 2.67 0 01-2.582 2zm4.667-3.59a.258.258 0 01-.257.257H3.59a.258.258 0 01-.257-.257V27.59c0-.142.115-.257.257-.257h32.82c.142 0 .257.115.257.257v7.487z" fill="#DEC377"/></g><defs><clipPath id="clip0"><path fill="#fff" d="M0 0h40v40H0z"/></clipPath></defs></svg>