<svg width="35" height="38" fill="none" xmlns="http://www.w3.org/2000/svg"><path d="M28.494 34.6H25.19a.66.66 0 010-1.321h3.303a5.29 5.29 0 005.285-5.285v-9.248a5.29 5.29 0 00-5.285-5.284H25.19a.66.66 0 010-1.321h3.303a6.613 6.613 0 016.606 6.605v9.248a6.613 6.613 0 01-6.606 6.606z" fill="#DEC377"/><path d="M28.494 30.637H25.19a.66.66 0 010-1.322h3.303a1.321 1.321 0 001.321-1.32v-9.249a1.32 1.32 0 00-1.321-1.32H25.19a.66.66 0 010-1.322h3.303a2.642 2.642 0 012.642 2.642v9.248a2.642 2.642 0 01-2.642 2.643z" fill="#DEC377"/><path d="M23.87 37.242H2.732A1.982 1.982 0 01.75 35.26V11.48a1.982 1.982 0 011.982-1.982H23.87a1.982 1.982 0 011.982 1.982v23.78a1.982 1.982 0 01-1.982 1.982zM2.732 10.82a.66.66 0 00-.66.661v23.78a.66.66 0 00.66.661H23.87a.66.66 0 00.66-.66V11.48a.66.66 0 00-.66-.66H2.732zm5.284-2.643A.66.66 0 017.55 7.05a1.52 1.52 0 000-2.37 2.84 2.84 0 010-4.236.66.66 0 11.934.934 1.52 1.52 0 000 2.369 2.84 2.84 0 010 4.237.66.66 0 01-.467.193zm5.284 0a.66.66 0 01-.466-1.127 1.519 1.519 0 000-2.37 2.84 2.84 0 010-4.236.66.66 0 11.934.934 1.52 1.52 0 000 2.369 2.84 2.84 0 010 4.237.66.66 0 01-.467.193zm5.285 0a.66.66 0 01-.467-1.127 1.52 1.52 0 000-2.37 2.84 2.84 0 010-4.236.66.66 0 11.934.934 1.519 1.519 0 000 2.369 2.84 2.84 0 010 4.237.66.66 0 01-.467.193z" fill="#DEC377"/></svg>