<svg width="40" height="40" fill="none" xmlns="http://www.w3.org/2000/svg"><path d="M33.036 0H6.964L0 11.142V40h40V11.142L33.036 0zm5.095 10.667H20.667V1.333h11.63l5.834 9.334zM7.703 1.333h11.63v9.334H1.87l5.834-9.334zm-6.37 37.334V12h37.334v26.667H1.333z" fill="#DEC377"/><path d="M24 15.333h-8c-1.103 0-2 .898-2 2 0 1.103.897 2 2 2h8c1.103 0 2-.897 2-2 0-1.102-.897-2-2-2zM24 18h-8a.667.667 0 010-1.333h8A.667.667 0 0124 18zm1.333 16.667H14.667a.667.667 0 100 1.333h10.666a.667.667 0 100-1.333zM16.667 26c.368 0 .666.299.666.667v4.391l.862-.862a.665.665 0 01.943 0c.26.26.26.682 0 .943l-2 2a.668.668 0 01-.944 0l-1.999-2a.666.666 0 11.943-.943l.862.862v-4.39c0-.37.299-.667.667-.667zm7.138 7.138a.668.668 0 01-.944 0l-1.999-2a.666.666 0 11.943-.942l.862.862v-4.39a.666.666 0 111.333 0v4.39l.862-.862a.665.665 0 01.943 0c.26.26.26.682 0 .943l-2 2z" fill="#DEC377"/></svg>