<svg width="40" height="40" fill="none" xmlns="http://www.w3.org/2000/svg"><g clip-path="url(#clip0)" fill="#DEC377"><path d="M39.473.195a.666.666 0 00-.943 0l-2.472 2.472H20.536L1.02 22.342a2.336 2.336 0 00-.689 1.663c0 .628.245 1.22.69 1.664l13.644 13.644A2.358 2.358 0 0018 39.306l19-19.513V3.609l2.471-2.471a.667.667 0 000-.943zM35.668 19.25L17.05 38.37a1.02 1.02 0 01-1.441 0L1.964 24.727a1.013 1.013 0 01-.299-.72c0-.273.106-.529.301-.724L21.091 4h13.634l-3.222 3.222a3.312 3.312 0 00-1.835-.555A3.337 3.337 0 0026.334 10a3.337 3.337 0 003.334 3.334A3.337 3.337 0 0033 10c0-.678-.206-1.308-.555-1.835l3.222-3.222V19.25zm-4-9.25c0 1.103-.898 2-2 2-1.103 0-2-.897-2-2 0-1.102.897-2 2-2 .308 0 .596.076.856.201l-1.328 1.328a.666.666 0 10.943.943l1.328-1.328c.125.26.2.548.2.856z"/><path d="M26.943 14.088a.666.666 0 10-.943-.943l-.497.498a5.977 5.977 0 00-4.247-1.292 3.93 3.93 0 00-2.741 1.462 4.197 4.197 0 00-.9 3.15l.507 4.06-5.965 5.965a4.67 4.67 0 01.434-6.09.666.666 0 10-.943-.944 6.006 6.006 0 00-.444 7.987l-.76.761a.666.666 0 10.942.943l.762-.762a5.988 5.988 0 004.245 1.293 3.923 3.923 0 002.74-1.461 4.196 4.196 0 00.901-3.15l-.507-4.06 5.965-5.965a4.671 4.671 0 01-.434 6.091.666.666 0 10.942.943 6.008 6.008 0 00.444-7.987l.499-.499zm-8.234 11.643a2.856 2.856 0 01-.612 2.144 2.604 2.604 0 01-1.816.974 4.697 4.697 0 01-3.181-.918l5.23-5.231.38 3.03zm.228-8.933a2.857 2.857 0 01.612-2.144 2.61 2.61 0 011.817-.975 4.674 4.674 0 013.181.918l-5.232 5.231-.378-3.03z"/></g><defs><clipPath id="clip0"><path fill="#fff" d="M0 0h40v40H0z"/></clipPath></defs></svg>