<svg width="40" height="40" fill="none" xmlns="http://www.w3.org/2000/svg"><path d="M40 11.162h-5.954V8.598h-16.22l-1.923-5.127H2v31.405h32.046v-.56L40 11.162zm-1.654 1.282l-4.3 16.725V12.444h4.3zM3.282 4.753h11.733l1.923 5.127h15.826v23.714H3.282V4.753z" fill="#DEC377"/><path d="M5.845 31.03h15.383v-9.614H5.845v9.614zm1.282-8.332h12.819v7.05H7.127v-7.05z" fill="#DEC377"/><path d="M14.818 27.185H9.05a.64.64 0 100 1.282h5.768a.64.64 0 100-1.282zM9.05 25.262h2.564a.64.64 0 100-1.282H9.05a.64.64 0 100 1.282zm8.973-1.282H16.74a.64.64 0 100 1.282h1.282a.64.64 0 100-1.282zm-1.096 3.39a.657.657 0 00-.186.456c0 .173.07.333.186.448a.64.64 0 00.91.007.674.674 0 00.186-.455.673.673 0 00-.186-.455.671.671 0 00-.91 0zm-2.749-2.108c.166 0 .333-.07.455-.186a.674.674 0 00.186-.455.66.66 0 00-.186-.455c-.237-.237-.68-.237-.91 0a.67.67 0 00-.186.455c0 .167.07.334.185.455a.672.672 0 00.456.186z" fill="#DEC377"/></svg>