<svg width="40" height="40" fill="none" xmlns="http://www.w3.org/2000/svg"><path fill-rule="evenodd" clip-rule="evenodd" d="M20 1C9.81 1 1.493 9.022 1.021 19.095H1v8.947a4.926 4.926 0 009.852 0v-4.02a4.926 4.926 0 00-4.926-4.927H2.833C3.303 10.022 10.809 2.81 20 2.81c9.19 0 16.697 7.212 17.167 16.285h-3.093a4.926 4.926 0 00-4.926 4.926v4.021a4.926 4.926 0 008.043 3.815v.206c0 1.94-.329 3.235-.854 4.022-.482.723-1.186 1.105-2.263 1.105H23.117V39h10.957c1.604 0 2.91-.623 3.769-1.91.815-1.224 1.157-2.944 1.157-5.027V20C39 9.507 30.494 1 20 1zM2.81 28.042v-7.137h3.116a3.116 3.116 0 013.116 3.116v4.021a3.116 3.116 0 01-6.232 0zm31.264-7.137h3.117v7.137a3.116 3.116 0 01-6.233 0v-4.02a3.116 3.116 0 013.116-3.117z" fill="#DEC377"/></svg>