<svg width="40" height="40" fill="none" xmlns="http://www.w3.org/2000/svg"><path d="M35.333 27.38v-8.047H20.667v-6.712a5.339 5.339 0 004.666-5.288A5.34 5.34 0 0020 2a5.34 5.34 0 00-5.333 5.333 5.339 5.339 0 004.666 5.288v6.712H4.667v8.046C2.04 27.71 0 29.952 0 32.667A5.34 5.34 0 005.333 38a5.34 5.34 0 005.334-5.333A5.339 5.339 0 006 27.379v-6.712h13.333v6.712a5.339 5.339 0 00-4.666 5.288A5.34 5.34 0 0020 38a5.34 5.34 0 005.333-5.333 5.339 5.339 0 00-4.666-5.288v-6.712H34v6.712a5.339 5.339 0 00-4.667 5.288A5.34 5.34 0 0034.667 38 5.34 5.34 0 0040 32.667a5.339 5.339 0 00-4.667-5.288zM16 7.332c0-2.206 1.794-4 4-4s4 1.794 4 4-1.794 4-4 4-4-1.794-4-4zM9.333 32.667c0 2.206-1.794 4-4 4s-4-1.794-4-4 1.794-4 4-4 4 1.794 4 4zm14.667 0c0 2.206-1.794 4-4 4s-4-1.794-4-4 1.794-4 4-4 4 1.794 4 4zm10.667 4c-2.206 0-4-1.794-4-4s1.794-4 4-4 4 1.794 4 4-1.794 4-4 4z" fill="#DEC377"/></svg>