<svg width="70" height="70" fill="none" xmlns="http://www.w3.org/2000/svg"><path d="M29.531 42.001v-2.816c.374-.315.748-.627 1.122-.935l1.122-.924a35.707 35.707 0 002.244-2.013c.631-.623 1.115-1.225 1.452-1.804.338-.58.506-1.162.506-1.749 0-.565-.165-.99-.495-1.276-.322-.293-.81-.44-1.463-.44a4.43 4.43 0 00-1.056.132 7.695 7.695 0 00-1.078.352 9.581 9.581 0 00-1.067.517c-.352.19-.693.4-1.023.627l-.352-4.004c.345-.154.726-.297 1.144-.429.418-.14.862-.264 1.331-.374.47-.11.957-.194 1.463-.253.506-.066 1.02-.099 1.54-.099 1.174 0 2.164.187 2.97.561.814.367 1.427.902 1.837 1.606.418.697.627 1.533.627 2.508 0 .748-.143 1.492-.429 2.233-.286.733-.733 1.456-1.342 2.167-.601.711-1.375 1.415-2.32 2.112l-2.014 1.507-.495-.814h6.722v3.608H29.53z" fill="#DEC377"/><circle cx="35" cy="35.001" r="34.5" stroke="#DEC377" stroke-opacity=".75"/></svg>