<svg width="52" height="60" viewBox="0 0 52 60" fill="none" xmlns="http://www.w3.org/2000/svg">
<path d="M43.5387 33.969H43.0772C43.8156 32.6767 44.2772 31.1075 44.2772 30.0921C44.2772 27.6921 42.2464 25.6613 39.8464 25.6613C37.4464 25.6613 35.4156 27.6921 35.4156 30.0921C35.4156 31.1075 35.8772 32.6767 36.6156 33.969H36.1541C35.231 33.969 34.4002 34.246 33.6618 34.7075C33.0156 33.1383 31.4464 32.1229 29.6925 32.1229H29.231C29.9695 30.8306 30.431 29.2613 30.431 28.246C30.431 25.846 28.4002 23.8152 26.0002 23.8152C23.6002 23.8152 21.5695 25.846 21.5695 28.246C21.5695 29.2613 22.031 30.8306 22.7695 32.1229H22.3079C20.5541 32.1229 18.9849 33.2306 18.3387 34.7075C17.6002 34.246 16.7695 33.969 15.8464 33.969H15.3849C16.1233 32.6767 16.5849 31.1075 16.5849 30.0921C16.5849 27.6921 14.5541 25.6613 12.1541 25.6613C9.75408 25.6613 7.72331 27.6921 7.72331 30.0921C7.72331 31.1075 8.18485 32.6767 8.92331 33.969H8.46178C6.06178 33.969 4.03101 35.9075 4.03101 38.3998V48.5536C4.03101 48.9229 4.30793 49.2921 4.76947 49.2921H7.72331V58.7998C7.72331 59.169 8.00024 59.5383 8.46178 59.5383H15.9387C16.3079 59.5383 16.6772 59.2613 16.6772 58.7998V40.3383C16.6772 39.969 16.4002 39.5998 15.9387 39.5998C15.4772 39.5998 15.2002 39.8767 15.2002 40.3383V58.1536H12.8002V46.6152C12.8002 46.246 12.5233 45.8767 12.0618 45.8767C11.6002 45.8767 11.3233 46.1536 11.3233 46.6152V57.969H8.92331V40.1536C8.92331 39.7844 8.64639 39.4152 8.18485 39.4152C7.72331 39.4152 7.44639 39.6921 7.44639 40.1536V47.8152H5.23101V38.3075C5.23101 36.646 6.61562 35.2613 8.27716 35.2613H9.75408C10.4002 35.9075 11.1387 36.2767 11.9695 36.2767C12.8002 36.2767 13.5387 35.9075 14.1849 35.2613H15.6618C16.4925 35.2613 17.231 35.6306 17.7849 36.1844C17.7849 36.2767 17.7849 36.369 17.7849 36.4613V45.6921C17.7849 46.0613 18.0618 46.4306 18.5233 46.4306H21.4772V57.7844C21.4772 58.1536 21.7541 58.5229 22.2156 58.5229H29.6925C30.0618 58.5229 30.431 58.246 30.431 57.7844V46.4306H33.3849C33.7541 46.4306 34.1233 46.1536 34.1233 45.6921V36.4613C34.1233 36.369 34.1233 36.2767 34.1233 36.1844C34.6772 35.6306 35.4156 35.2613 36.2464 35.2613H37.7233C38.3695 35.9075 39.1079 36.2767 39.9387 36.2767C40.7695 36.2767 41.5079 35.9075 42.1541 35.2613H43.631C45.2925 35.2613 46.6772 36.646 46.6772 38.3075V47.8152H44.4618V40.1536C44.4618 39.7844 44.1849 39.4152 43.7233 39.4152C43.2618 39.4152 42.9849 39.6921 42.9849 40.1536V57.969H40.5849V46.6152C40.5849 46.246 40.3079 45.8767 39.8464 45.8767C39.3849 45.8767 39.1079 46.1536 39.1079 46.6152V57.969H36.7079V40.1536C36.7079 39.7844 36.431 39.4152 35.9695 39.4152C35.5079 39.4152 35.231 39.6921 35.231 40.1536V58.6152C35.231 58.9844 35.5079 59.3536 35.9695 59.3536H43.4464C43.8156 59.3536 44.1849 59.0767 44.1849 58.6152V49.1998H47.1387C47.5079 49.1998 47.8772 48.9229 47.8772 48.4613V38.3075C47.9695 35.9075 45.9387 33.969 43.5387 33.969ZM12.1541 27.046C13.8156 27.046 15.2002 28.4306 15.2002 30.0921C15.2002 31.2921 14.4618 33.1383 13.5387 34.1536C13.2618 34.4306 12.9849 34.7075 12.6156 34.8921C12.6156 34.8921 12.6156 34.8921 12.5233 34.8921C12.431 34.8921 12.2464 34.9844 12.1541 34.9844C12.0618 34.9844 11.8772 34.9844 11.7849 34.8921C11.7849 34.8921 11.7849 34.8921 11.6925 34.8921C11.3233 34.7075 10.9541 34.4306 10.7695 34.1536C9.84639 33.1383 9.10793 31.2921 9.10793 30.0921C9.10793 28.3383 10.4925 27.046 12.1541 27.046ZM26.0002 25.1998C27.6618 25.1998 29.0464 26.5844 29.0464 28.246C29.0464 29.446 28.3079 31.2921 27.3849 32.3075C27.1079 32.5844 26.831 32.8613 26.4618 33.046C26.4618 33.046 26.4618 33.046 26.3695 33.046C26.2772 33.046 26.0925 33.1383 26.0002 33.1383C25.9079 33.1383 25.7233 33.1383 25.631 33.046C25.631 33.046 25.631 33.046 25.5387 33.046C25.1695 32.8613 24.8002 32.5844 24.6156 32.3075C23.6925 31.2921 22.9541 29.446 22.9541 28.246C22.9541 26.4921 24.3387 25.1998 26.0002 25.1998ZM32.7387 45.046H30.5233V40.1536C30.5233 39.7844 30.2464 39.4152 29.7848 39.4152C29.3233 39.4152 29.0464 39.6921 29.0464 40.1536V57.046H26.6464V44.769C26.6464 44.3998 26.3695 44.0306 25.9079 44.0306C25.4464 44.0306 25.1695 44.3075 25.1695 44.769V57.046H22.7695V40.1536C22.7695 39.7844 22.4925 39.4152 22.031 39.4152C21.5695 39.4152 21.2925 39.6921 21.2925 40.1536V45.046H19.0772V36.4613C19.0772 34.7998 20.4618 33.4152 22.1233 33.4152H23.6002C24.2464 34.0613 24.9848 34.4306 25.8156 34.4306C26.6464 34.4306 27.3849 34.0613 28.031 33.4152H29.5079C31.1695 33.4152 32.5541 34.7998 32.5541 36.4613V45.046H32.7387ZM39.8464 27.046C41.5079 27.046 42.8925 28.4306 42.8925 30.0921C42.8925 31.2921 42.1541 33.1383 41.231 34.1536C40.9541 34.4306 40.6772 34.7075 40.3079 34.8921C40.3079 34.8921 40.3079 34.8921 40.2156 34.8921C40.1233 34.8921 39.9387 34.9844 39.8464 34.9844C39.7541 34.9844 39.5695 34.9844 39.4772 34.8921C39.4772 34.8921 39.4772 34.8921 39.3849 34.8921C39.0156 34.7075 38.6464 34.4306 38.4618 34.1536C37.5387 33.1383 36.8002 31.2921 36.8002 30.0921C36.8002 28.3383 38.1849 27.046 39.8464 27.046Z" fill="black" fill-opacity="0.8"/>
<path d="M50.2771 34.4306C51.1078 31.846 51.5694 29.0768 51.5694 26.3075C51.5694 12.1845 40.1232 0.645996 25.9078 0.645996C11.6924 0.645996 0.430908 12.1845 0.430908 26.3075C0.430908 29.0768 0.892446 31.7537 1.72322 34.4306C1.81552 34.7075 2.09245 34.8921 2.36937 34.8921C2.46168 34.8921 2.55398 34.8921 2.55398 34.8921C2.92322 34.7998 3.10783 34.3383 3.01552 34.0614C2.18475 31.5691 1.81552 28.9845 1.81552 26.3998C1.81552 22.3383 2.83091 18.4614 4.58475 15.046H13.4463C12.8001 17.3537 12.4309 19.9383 12.154 22.6152C12.154 22.9845 12.4309 23.3537 12.8001 23.3537C13.1694 23.3537 13.5386 23.0768 13.5386 22.7075C13.7232 19.9383 14.1848 17.3537 14.9232 14.9537H25.354V20.7691C25.354 21.1383 25.6309 21.5075 26.0924 21.5075C26.554 21.5075 26.8309 21.2306 26.8309 20.7691V14.9537H37.2617C37.9078 17.3537 38.3694 19.9383 38.6463 22.7075C38.6463 23.0768 39.0155 23.3537 39.2924 23.3537C39.2924 23.3537 39.2924 23.3537 39.3848 23.3537C39.754 23.3537 40.0309 22.9845 40.0309 22.6152C39.8463 19.9383 39.3848 17.3537 38.7386 15.046H47.6001C49.354 18.4614 50.3694 22.246 50.3694 26.3998C50.3694 28.9845 49.9078 31.5691 49.1694 34.0614C49.0771 34.4306 49.2617 34.7998 49.6309 34.8921C49.8155 34.9845 50.1848 34.7998 50.2771 34.4306ZM5.41552 13.6614C8.7386 8.21523 14.1848 4.246 20.554 2.76907C17.6924 4.98446 15.3848 8.76907 13.9078 13.6614H5.41552ZM15.2924 13.6614C17.4155 7.10753 21.1078 2.67677 25.2617 2.21523V13.6614H15.2924ZM26.7386 13.6614V2.12292C30.8924 2.58446 34.5848 7.01523 36.7078 13.5691H26.7386V13.6614ZM38.1848 13.6614C36.7078 8.76907 34.3078 4.98446 31.5386 2.76907C37.9078 4.246 43.354 8.21523 46.6771 13.6614H38.1848Z" fill="black" fill-opacity="0.8"/>
</svg>
