<svg width="19" height="16" fill="none" xmlns="http://www.w3.org/2000/svg"><path d="M9.525 16l-.792-2.754H4.287L3.495 16H.147L4.521 3.094h3.924l2.214 6.453L12.873 16H9.526zM7.293 8.116c-.06-.216-.144-.504-.252-.864-.096-.372-.198-.75-.306-1.134a47.769 47.769 0 01-.234-.972c-.048.264-.126.594-.234.99-.096.384-.192.762-.288 1.134-.096.36-.174.642-.234.846L4.99 10.69h3.06l-.756-2.574zM18.13.808v7.704h-2.268V4.948c0-.144.006-.342.018-.594l.036-.756c.012-.252.024-.42.036-.504a3.135 3.135 0 01-.288.36c-.12.12-.228.222-.324.306l-.702.558L13.54 3.04 16.348.808h1.782z" fill="#000" fill-opacity=".5"/></svg>