<svg width="231" height="60" fill="none" xmlns="http://www.w3.org/2000/svg"><g clip-path="url(#clip0)"><path fill-rule="evenodd" clip-rule="evenodd" d="M10.938 32.645s.047-.811-.649-1.6c-.718-.81-3.105-.81-4.125-1.111-1.02-.302-1.089-1.066-1.089-1.066v-3.106s.047.742 1.09 1.066c1.019.302 3.406.302 4.124 1.113.696.788.65 1.599.65 1.599v3.105zm0 7.462s.047-.811-.649-1.6c-.718-.81-3.105-.81-4.125-1.111-1.02-.302-1.089-1.066-1.089-1.066v-3.106s.047.742 1.09 1.066c1.019.301 3.406.301 4.124 1.113.696.787.65 1.599.65 1.599v3.105zM7.972 4.511c-.14.093-.301.371-.44.557-.14.185-.325.324-.21.556.14.278.488 1.066.65 1.274.162-.185.51-.973.649-1.274.116-.255-.093-.417-.232-.603-.116-.139-.278-.417-.417-.51zm2.595 3.314l.95-1.946-.973.231.023 1.715zM5.47 7.802V6.087l-.973-.208.973 1.923zm2.55-5.724c.347.858.88 1.993 1.621 2.827.556.626.302.464-.116 1.39-.208.464-.51 1.113-.463 1.67.695-.07.857-1.437.95-2.04.07-.37.116-.463.464-.58 1.251-.393 1.205-.046 2.41-1.25.162-.163.208-.21.324-.117.14.232-.394 1.02-.533 1.321-.672 1.39-1.46 2.712-1.691 4.264H5.168c-.232-1.506-1.043-2.896-1.692-4.24-.093-.163-.95-1.507-.417-1.368l.973.858c.858.649 1.9.139 2.063 1.043.116.625.231 2.016.95 2.085.046-.556-.255-1.182-.464-1.645a8.83 8.83 0 00-.347-.672c-.232-.371 0-.51.185-.719.695-.788 1.228-2.062 1.6-2.827z" fill="#D3AF4A"/><path d="M51.284 2.727c0 .115-.115.37-.347.764-.232.394-.556.997-.927 1.785-.185.394-.37.81-.58 1.205a29.96 29.96 0 00-.602 1.228c-.209.417-.394.811-.556 1.182-.162.37-.325.742-.464 1.066-.162.394-.324.834-.533 1.344-.208.51-.394 1.02-.556 1.53-.185.51-.324.973-.44 1.39-.116.417-.186.718-.186.927 0 .185.047.301.14.348.092.023.208.046.3.046a.883.883 0 00.395-.093c.139-.07.278-.116.394-.185l.417-.278.185.44c-.162.14-.394.325-.649.533-.278.209-.556.44-.88.649a5.918 5.918 0 01-.997.533c-.347.139-.672.232-.95.232a.793.793 0 01-.417-.093c-.116-.07-.162-.185-.162-.394 0-.139.046-.394.162-.811a27.9 27.9 0 01.556-1.645c.209-.603.464-1.252.742-1.947.278-.695.556-1.367.857-2.04.278-.671.556-1.297.788-1.876.255-.58.44-1.067.626-1.46l-.14-.047c-.324.325-.625.672-.926.997-.301.347-.672.741-1.09 1.205-.417.463-.95 1.02-1.575 1.668-.626.65-1.414 1.437-2.364 2.387l-1.113 1.113c-.324.324-.648.649-.973.95-.324.301-.625.58-.95.857-.324.278-.672.556-1.066.835a2.52 2.52 0 01-.626.347c-.278.116-.533.186-.81.186-.21 0-.371-.07-.441-.186-.093-.116-.116-.301-.116-.556 0-.209.07-.533.209-.973.139-.44.3-.95.51-1.484.208-.556.417-1.112.672-1.691.231-.58.463-1.113.648-1.553.65-1.506 1.252-2.92 1.808-4.195a73.557 73.557 0 011.83-3.893h-.092c-.209.209-.556.603-1.043 1.159-.486.58-1.089 1.228-1.738 2.016-.672.765-1.39 1.6-2.178 2.48-.788.88-1.553 1.738-2.318 2.549-.417.44-.857.927-1.344 1.437a84.66 84.66 0 01-1.506 1.552c-.51.51-1.043 1.02-1.576 1.507a23.22 23.22 0 01-1.553 1.298c-.51.37-.996.672-1.46.903-.463.232-.88.348-1.251.348-.463 0-.718-.232-.718-.695 0-.418.139-.835.44-1.229a3.715 3.715 0 011.066-1.02h.255c-.023.07-.023.14-.023.186v.162c0 .07 0 .14.023.232.023.093.046.162.092.255.047.093.14.162.232.209a.897.897 0 00.394.092c.116 0 .232-.023.394-.07.162-.046.348-.138.556-.277a8.91 8.91 0 00.788-.556c.302-.232.65-.557 1.043-.928 1.02-.996 1.97-1.946 2.897-2.873a99.067 99.067 0 002.665-2.804c.857-.95 1.692-1.9 2.526-2.874a88.43 88.43 0 002.48-3.059 7.903 7.903 0 00-.997-.139 17.383 17.383 0 00-1.274-.046c-.464 0-1.113.023-1.878.046-.787.023-1.668.162-2.641.371a22.4 22.4 0 00-3.222.973c-1.158.44-2.34 1.066-3.569 1.877-.463.325-.88.65-1.274.974a10.06 10.06 0 00-.997.996 5.338 5.338 0 00-.648.95 1.75 1.75 0 00-.232.835c0 .185.046.3.162.394.116.092.255.115.417.115.186 0 .348-.023.51-.07a4.13 4.13 0 00.533-.208v.278a2.332 2.332 0 01-1.09.765c-.44.162-.857.255-1.25.255-.65 0-.997-.278-.997-.834 0-.464.185-.927.533-1.437a8.73 8.73 0 011.344-1.46 16.039 16.039 0 011.715-1.32 22.746 22.746 0 011.645-1.044c1.275-.718 2.526-1.297 3.8-1.715 1.252-.417 2.434-.741 3.523-.95 1.09-.208 2.04-.347 2.874-.417.834-.046 1.46-.093 1.877-.093.672 0 1.252.024 1.738.047.487.023.904.07 1.252.092.394.047.741.093 1.042.116-.115.163-.255.44-.463.835-.209.394-.417.81-.649 1.297-.232.487-.487 1.02-.741 1.576-.255.556-.487 1.09-.719 1.622a151.031 151.031 0 00-2.04 4.89c-.254.65-.44 1.228-.602 1.692-.139.463-.208.811-.208 1.02 0 .07 0 .115.023.185.023.046.07.07.185.07.14 0 .464-.21.997-.626.533-.417 1.228-1.066 2.132-1.947.162-.162.417-.44.81-.834.372-.394.835-.858 1.345-1.39.51-.534 1.09-1.136 1.692-1.808.602-.65 1.205-1.344 1.83-2.04.58-.648 1.043-1.25 1.345-1.76.324-.51.602-.95.88-1.299.255-.347.464-.579.649-.718.162-.139.37-.232.626-.324a1.8 1.8 0 01.533-.093c.208-.023.324-.023.394-.023.162-.209.231-.14.231-.023zm25.376-.464c0 .209-.185.533-.556.927-.37.394-1.02.904-1.97 1.553-.834.556-1.529 1.02-2.108 1.39-.58.371-1.113.696-1.553.974-.463.278-.88.556-1.275.788-.394.231-.81.533-1.228.834.162.324.371.765.58 1.39.208.603.417 1.252.648 1.947.163.487.302.996.464 1.483.162.487.324.927.51 1.321.185.394.37.695.602.927.209.232.464.37.742.37.255 0 .51-.046.765-.161.278-.093.51-.255.718-.418l.185.232c-.046.07-.162.186-.37.371-.209.186-.44.37-.696.556a6.367 6.367 0 01-.857.51 1.77 1.77 0 01-.858.232c-.347 0-.625-.093-.834-.301-.231-.209-.417-.487-.602-.835a8.21 8.21 0 01-.51-1.251c-.162-.464-.325-.997-.533-1.53a12.583 12.583 0 01-.325-.996c-.115-.417-.255-.834-.394-1.275a9.79 9.79 0 00-.44-1.182c-.162-.347-.301-.602-.44-.741-.325.741-.626 1.46-.95 2.155a41.698 41.698 0 01-.858 1.9c-.301.672-.58 1.252-.81 1.738-.117.279-.233.51-.325.696a2.712 2.712 0 01-.278.463c-.093.14-.186.232-.255.325a2.453 2.453 0 01-.278.231c-.209.14-.44.255-.719.325a2.012 2.012 0 01-.649.116c-.116 0-.208-.024-.232-.07a.336.336 0 01-.046-.162c0-.07.047-.209.162-.417.116-.209.278-.533.51-.974.417-.764.765-1.46 1.066-2.039.302-.602.556-1.159.811-1.715s.51-1.112.742-1.668c.255-.557.533-1.205.857-1.947.255-.556.487-1.136.765-1.761.255-.603.487-1.159.719-1.669.208-.51.394-.95.533-1.344.139-.37.231-.626.278-.741-.186-.024-.371-.024-.533-.047-.163-.023-.325-.023-.487-.046-.162-.023-.325-.023-.463-.023-.58 0-1.252.023-2.04.07-.788.046-1.645.161-2.595.37-.95.209-1.993.533-3.106.973-1.112.44-2.27 1.043-3.476 1.831-.463.324-.904.649-1.298.973-.394.348-.718.672-.996.997a4.174 4.174 0 00-.626.95c-.139.301-.208.58-.208.834a.69.69 0 00.116.348c.069.116.231.185.486.185.209 0 .37-.023.51-.07a6.08 6.08 0 00.533-.208v.278A3.331 3.331 0 0151.98 11c-.44.162-.834.255-1.136.255-.648 0-.996-.278-.996-.834 0-.417.185-.858.533-1.368.37-.51.811-.996 1.344-1.483a20.155 20.155 0 011.715-1.367c.602-.44 1.159-.788 1.645-1.066a26.062 26.062 0 013.708-1.715c1.182-.417 2.318-.742 3.407-.95a26.37 26.37 0 013.082-.417 37.68 37.68 0 012.688-.093c.278 0 .58.023.904.07.324.046.556.07.742.092l-3.152 6.93c.556-.395 1.066-.719 1.506-1.02.44-.302.88-.58 1.298-.858.417-.278.857-.556 1.275-.857.417-.301.926-.626 1.483-1.02.255-.162.486-.347.764-.556.255-.209.487-.394.719-.603.208-.208.394-.394.533-.602.139-.185.208-.37.208-.533 0-.162-.07-.255-.208-.301-.14-.047-.255-.093-.348-.093v-.14a6.41 6.41 0 011.414-.486c.463-.092.788-.139.996-.139.116 0 .255.023.371.07.116.046.186.162.186.347zM49.384 21.938c0 .232-.092.44-.255.626a2.55 2.55 0 01-.579.44c-.255.14-.51.255-.834.325l-.116-.093c.023-.046.023-.14.023-.232 0-.278-.139-.556-.44-.834-.301-.255-.719-.487-1.275-.695-.556-.209-1.251-.371-2.086-.487a21.238 21.238 0 00-2.896-.185 2.298 2.298 0 00-.255.394c-.07.139-.162.3-.232.486a6.043 6.043 0 00-.278.65c-.116.23-.232.509-.37.833-.14.325-.348.811-.627 1.484-.278.672-.602 1.46-.996 2.34-.37.904-.788 1.854-1.228 2.897-.44 1.043-.904 2.063-1.344 3.105-.209.464-.44.88-.719 1.275a3.358 3.358 0 01-.81.88c-.093.07-.21.14-.372.21-.162.069-.3.138-.463.184a1.91 1.91 0 01-.44.14c-.14.023-.255.046-.325.046l-.139-.162c.023-.047.093-.163.162-.302.093-.162.186-.324.302-.533.115-.208.231-.417.37-.648.14-.232.255-.464.371-.65.278-.486.58-1.065.88-1.738a46.21 46.21 0 00.974-2.108c.348-.742.695-1.53 1.043-2.34.37-.812.718-1.623 1.066-2.411.301-.672.58-1.228.788-1.669.232-.44.417-.81.602-1.112.186-.301.325-.533.464-.718.139-.186.278-.371.417-.533h-.58c-.74 0-1.598.023-2.548.092-.95.07-1.994.209-3.083.418a21.465 21.465 0 00-3.43.973c-1.204.417-2.386.996-3.615 1.738-.973.58-1.738 1.228-2.317 1.9-.556.672-.834 1.298-.834 1.854 0 .348.185.51.579.51.162 0 .325-.023.487-.07.162-.046.347-.116.556-.231v.278a2.9 2.9 0 01-1.182.764c-.463.163-.858.255-1.159.255-.37 0-.625-.092-.764-.255-.14-.162-.209-.393-.209-.695 0-.417.185-.857.533-1.344.37-.486.811-.973 1.32-1.437.534-.463 1.09-.927 1.716-1.32a16.28 16.28 0 011.668-1.02c1.229-.65 2.457-1.182 3.731-1.576a30.478 30.478 0 013.639-.973 31.58 31.58 0 013.244-.487 28.29 28.29 0 012.526-.14h.301l1.136-.833h.463c-.115.162-.208.278-.3.417l-.325.417c.973.023 1.923.07 2.873.162a23.6 23.6 0 012.573.37c.764.163 1.39.372 1.854.603.533.186.764.464.764.765zm-4.148.927c-.162.301-.347.649-.556 1.066-.209.417-.44.834-.672 1.298-.232.44-.44.904-.649 1.344-.209.44-.37.857-.51 1.205-.208.533-.417 1.066-.625 1.622-.209.556-.487 1.229-.812 2.016a48.34 48.34 0 01-.417 1.043c-.162.394-.231.719-.231.997 0 .185.115.278.324.278.139 0 .278-.023.44-.093.163-.07.302-.116.417-.185a3.25 3.25 0 00.418-.278l.185.44c-.162.139-.394.301-.649.51a11.48 11.48 0 01-.857.58 7.345 7.345 0 01-.95.486 2.326 2.326 0 01-.928.208c-.3 0-.44-.185-.44-.579 0-.116.023-.301.07-.533.046-.232.116-.487.208-.742.093-.278.209-.556.325-.857.116-.301.255-.602.37-.904.07-.185.21-.51.371-.927.186-.417.371-.904.603-1.46.232-.556.463-1.135.741-1.738.255-.602.533-1.182.812-1.715a39.8 39.8 0 01.787-1.46c.255-.44.487-.741.672-.927.302-.3.58-.486.812-.556a1.81 1.81 0 01.533-.093h.208v-.046zm10.754 4.542c0 .673-.117 1.345-.325 2.04a7.844 7.844 0 01-1.066 2.04c-.255.347-.58.764-.997 1.227a9.126 9.126 0 01-1.367 1.298 8.38 8.38 0 01-1.715 1.02 4.8 4.8 0 01-1.993.417c-.232 0-.464 0-.718-.023-.255-.023-.44-.023-.603-.07-.162.348-.324.788-.51 1.275-.185.487-.417 1.066-.649 1.715-.556 1.437-.927 2.48-1.112 3.082-.023.162-.046.324-.07.464-.023.162-.023.231-.023.277-.116.325-.394.603-.81.858-.441.278-.835.44-1.183.44-.231 0-.347-.116-.347-.37 0-.116.046-.348.139-.65.093-.3.255-.718.463-1.228l2.828-6.465c-.163-.371-.255-.719-.255-1.066v-.255c0-.07.023-.116.023-.185l.625.254 1.947-4.38c.394-.903.603-1.483.603-1.76 0-.117-.07-.186-.186-.186-.116 0-.301.046-.602.162a9.467 9.467 0 00-1.229.602l-.139-.393c.255-.14.58-.302.95-.487.371-.185.765-.37 1.16-.556a17.32 17.32 0 011.135-.44c.37-.116.649-.186.857-.186.186 0 .278.093.278.278 0 .093-.115.417-.37.973-.255.58-.58 1.252-.997 2.04l.116.023c.255-.255.51-.533.788-.834.278-.302.58-.603.904-.904.324-.301.649-.58 1.02-.834a5.06 5.06 0 011.135-.672c.324-.163.672-.232 1.09-.232.37 0 .648.116.88.37.231.325.324.742.324 1.322zm-1.97.835c0-.348-.047-.626-.117-.788-.092-.162-.231-.255-.463-.255-.325 0-.695.139-1.09.44-.416.302-.81.672-1.227 1.113-.418.463-.835.95-1.229 1.506a20.19 20.19 0 00-1.089 1.622c-.278.44-.486.858-.672 1.228-.162.371-.301.719-.417 1.043.487.301 1.09.464 1.761.464.58 0 1.136-.186 1.646-.58.44-.324.834-.695 1.205-1.158.347-.464.648-.927.903-1.46a7.8 7.8 0 00.58-1.6 6 6 0 00.208-1.575zm13.023-1.6a3.37 3.37 0 00-.58.672c-.185.279-.37.58-.555.927-.116.255-.255.534-.418.881-.162.348-.347.742-.533 1.182-.208.44-.37.811-.486 1.112-.116.302-.232.557-.302.742-.254.626-.37 1.02-.37 1.205 0 .209.116.301.347.301.302 0 .603-.092.95-.301.348-.209.696-.417 1.043-.649l.186.44-1.043.765c-.37.255-.719.51-1.09.719-.37.208-.718.394-1.065.533-.348.139-.65.208-.927.208-.348 0-.533-.162-.533-.486 0-.348.185-.95.533-1.762l.602-1.413h-.162a38.294 38.294 0 01-1.645 1.668c-.487.464-.927.858-1.344 1.136a5.37 5.37 0 01-1.136.649 2.818 2.818 0 01-1.066.208c-.811 0-1.228-.486-1.228-1.437 0-.463.07-.927.231-1.413a7.726 7.726 0 011.553-2.642c.348-.417.742-.788 1.159-1.159.417-.37.904-.718 1.39-1.066.51-.348 1.043-.625 1.6-.88a9.662 9.662 0 011.737-.603 6.91 6.91 0 011.808-.232c.278 0 .556.047.857.163.302.092.44.254.44.486v.046h.047zm-1.599.348c-.116-.093-.301-.162-.533-.185a7.093 7.093 0 00-.649-.047c-.486 0-.973.116-1.483.371a7.81 7.81 0 00-1.414.927 10.053 10.053 0 00-2.132 2.433c-.3.557-.556 1.043-.741 1.507-.186.463-.278.857-.278 1.182 0 .278.046.486.162.602.116.116.278.162.51.162.324 0 .695-.162 1.135-.463a10.35 10.35 0 001.275-1.066 20.14 20.14 0 001.182-1.275c.37-.44.625-.788.788-1.066.162-.255.347-.58.556-.996.116-.255.232-.51.347-.742a3.28 3.28 0 01.487-.718c.255-.255.533-.487.788-.626zm14.345-6.303c0 .625-.394 1.436-1.205 2.41-.255.301-.58.649-.997 1.02-.394.37-.834.741-1.32 1.135a26.64 26.64 0 01-1.53 1.159 16.14 16.14 0 01-1.622 1.043v.092c.37-.092.718-.139 1.043-.185.324-.023.602-.047.857-.047.417 0 .788.093 1.09.279.3.185.44.533.44 1.043a2.9 2.9 0 01-.232 1.112 7.42 7.42 0 01-.626 1.205c-.278.417-.58.811-.927 1.228a13.3 13.3 0 01-1.135 1.159c-.788.718-1.553 1.228-2.295 1.53-.741.3-1.413.463-1.993.463-.347 0-.625-.07-.834-.186a1.144 1.144 0 01-.44-.44 1.435 1.435 0 01-.186-.556c-.023-.209-.023-.37-.023-.533 0-.603.116-1.252.348-1.947.232-.695.51-1.413.834-2.155.278-.626.626-1.298 1.066-2.016a23.47 23.47 0 011.437-2.178 37.365 37.365 0 011.692-2.11 18.608 18.608 0 011.807-1.784 9.09 9.09 0 011.808-1.251c.602-.325 1.159-.464 1.692-.464.394 0 .695.07.903.209.255.162.348.417.348.765zm-1.924.996c0-.417-.231-.649-.671-.649-.395 0-.788.14-1.182.394-.418.255-.811.603-1.206 1.02-.393.417-.787.88-1.158 1.414a19.982 19.982 0 00-1.02 1.575c-.324.533-.602 1.043-.857 1.507-.255.486-.44.88-.58 1.205-.185.394-.37.81-.533 1.251-.162.44-.324.88-.44 1.298-.139.44-.232.834-.324 1.228a4.473 4.473 0 00-.116 1.043c0 .348.07.649.208.904.14.255.394.37.811.37.348 0 .672-.092 1.043-.277a5.51 5.51 0 001.182-.881c.51-.487.95-1.09 1.298-1.761.348-.696.51-1.344.51-1.97 0-.14 0-.301-.023-.464a1.926 1.926 0 00-.14-.486.876.876 0 00-.394-.371c-.185-.093-.44-.14-.787-.14a3.39 3.39 0 00-1.02.14c-.301.093-.487.162-.556.185v-.556c.394-.232.927-.58 1.599-1.02.672-.44 1.344-.95 1.993-1.506a13.223 13.223 0 001.692-1.738c.44-.58.671-1.159.671-1.715zm8.691 6.118a5.37 5.37 0 01-.58 2.434 10.99 10.99 0 01-1.46 2.247c-.88 1.02-1.738 1.762-2.572 2.225-.857.464-1.738.695-2.642.695-1.437 0-2.155-.718-2.155-2.132 0-.533.093-1.066.301-1.645a7.96 7.96 0 01.811-1.669 10.95 10.95 0 011.229-1.552 10.01 10.01 0 011.53-1.298 7.674 7.674 0 011.737-.88 5.677 5.677 0 011.854-.325c.626 0 1.112.162 1.46.51.301.347.487.81.487 1.39zm-1.9.765c0-.626-.093-1.043-.302-1.298-.208-.232-.533-.37-1.043-.37-1.112 0-2.085.648-2.99 1.97-.903 1.297-1.343 2.664-1.343 4.101 0 .463.116.811.324 1.112.209.278.556.417 1.066.417.417 0 .811-.115 1.182-.324.37-.209.719-.487 1.043-.834.324-.348.602-.742.857-1.159.255-.44.464-.857.65-1.298a7.42 7.42 0 00.416-1.274c.093-.394.14-.742.14-1.043zm14.553-7.879c0 .625-.394 1.436-1.205 2.41-.255.301-.58.649-.997 1.02-.394.37-.834.741-1.32 1.135a26.64 26.64 0 01-1.53 1.159 16.14 16.14 0 01-1.622 1.043v.092c.37-.092.718-.139 1.043-.185.324-.023.602-.047.857-.047.417 0 .788.093 1.09.279.3.185.44.533.44 1.043 0 .347-.07.718-.232 1.112a7.5 7.5 0 01-.626 1.205c-.278.417-.58.811-.927 1.228-.348.394-.718.788-1.135 1.159-.788.718-1.553 1.228-2.295 1.53-.741.3-1.413.463-1.993.463-.347 0-.625-.07-.834-.186a1.144 1.144 0 01-.44-.44 1.434 1.434 0 01-.186-.556c-.023-.209-.023-.37-.023-.533 0-.603.116-1.252.348-1.947.231-.695.51-1.413.834-2.155a17.3 17.3 0 011.066-2.016 23.47 23.47 0 011.437-2.178 37.365 37.365 0 011.692-2.11 18.62 18.62 0 011.807-1.784 9.09 9.09 0 011.808-1.251c.602-.325 1.158-.464 1.691-.464.395 0 .696.07.904.209.232.162.348.417.348.765zm-1.947.996c0-.417-.231-.649-.672-.649-.394 0-.788.14-1.182.394-.417.255-.81.603-1.205 1.02-.394.417-.788.88-1.158 1.414a19.982 19.982 0 00-1.02 1.575c-.325.533-.603 1.043-.858 1.507-.255.486-.44.88-.579 1.205-.185.394-.37.81-.533 1.251-.162.44-.324.88-.44 1.298-.14.44-.232.834-.325 1.228a4.473 4.473 0 00-.116 1.043c0 .348.07.649.209.904.14.255.394.37.811.37.348 0 .672-.092 1.043-.277a5.512 5.512 0 001.182-.881c.51-.487.95-1.09 1.298-1.761.347-.696.51-1.344.51-1.97 0-.14 0-.301-.024-.464a1.926 1.926 0 00-.139-.486.875.875 0 00-.394-.371c-.185-.093-.44-.14-.788-.14a3.39 3.39 0 00-1.02.14c-.3.093-.486.162-.555.185v-.556a44.7 44.7 0 001.599-1.02c.672-.44 1.344-.95 1.992-1.506a13.216 13.216 0 001.692-1.738c.44-.58.672-1.159.672-1.715zm7.532 8.482c0 .348-.116.765-.325 1.274-.208.51-.556.997-1.019 1.484-.163.185-.371.37-.626.579-.255.209-.533.417-.811.603-.301.208-.603.37-.927.556-.325.185-.626.278-.95.37-.487.163-.904.255-1.228.279-.325.023-.626.046-.95.046-.395 0-.65-.093-.812-.255a.79.79 0 01-.231-.556c0-.232.046-.51.162-.834.116-.325.278-.742.51-1.252.115-.255.254-.58.417-.973.185-.394.347-.811.533-1.252.185-.44.37-.857.533-1.25.162-.395.301-.72.394-.997.046-.116.092-.232.116-.348.046-.093.046-.185.046-.278 0-.116-.07-.186-.186-.186-.115 0-.278.047-.486.116-.209.093-.417.163-.603.278-.255.116-.486.232-.741.371l-.14-.394c.186-.116.418-.232.72-.394.3-.162.602-.301.926-.44.325-.14.626-.278.904-.394a7.06 7.06 0 01.672-.255c.324-.116.602-.162.834-.162.07 0 .139.023.186.046.046.023.069.116.069.255 0 .023-.023.093-.069.232-.047.139-.116.278-.186.44-.069.162-.162.348-.232.556a3.195 3.195 0 00-.208.533c-.116.232-.209.487-.325.742-.115.255-.254.556-.393.88.463-.231.95-.417 1.436-.579a4.37 4.37 0 011.391-.232c.579 0 .973.116 1.205.325.278.209.394.58.394 1.066zm-1.808.51c0-.209-.023-.394-.093-.533-.069-.14-.139-.232-.231-.278-.093-.07-.209-.093-.325-.116-.116-.023-.255-.023-.394-.023-.255 0-.556.046-.88.162a7.707 7.707 0 00-.881.37c-.139.325-.278.65-.44.997a19.31 19.31 0 00-.44 1.02c-.14.347-.255.649-.325.927a2.29 2.29 0 00-.116.718c0 .186.046.325.14.417.092.093.277.14.555.14.371 0 .788-.093 1.182-.302.394-.209.788-.463 1.113-.811.347-.348.602-.742.834-1.205.185-.44.301-.95.301-1.483zm6.674-4.566c0 .093-.208.557-.625 1.39-.417.858-.974 2.133-1.692 3.871l-.278.626c-.093.208-.186.417-.255.602-.07.186-.139.348-.185.51-.047.162-.07.278-.07.37 0 .14.023.21.07.256a.494.494 0 00.231.046c.116 0 .302-.046.51-.162.209-.116.417-.232.649-.37.255-.163.487-.325.765-.534l.185.44c-.162.14-.417.325-.741.58-.325.255-.672.51-1.066.741a8.194 8.194 0 01-1.159.65c-.394.185-.742.277-1.02.277-.208 0-.324-.046-.394-.139a.493.493 0 01-.092-.324c0-.14.046-.325.139-.626.092-.301.208-.626.37-1.02.163-.393.325-.788.51-1.228.186-.44.371-.857.556-1.297.186-.418.348-.812.51-1.182.162-.371.278-.672.394-.904.209-.487.44-.973.672-1.414.232-.463.464-.765.695-.904.255-.162.441-.255.626-.324.162-.07.348-.093.51-.093.046 0 .093 0 .139.023.023-.023.046.047.046.14zm9.039.511c0 .278-.093.556-.302.857a5.02 5.02 0 01-.741.857 9.676 9.676 0 01-.927.765c-.325.232-.603.44-.858.603-.533.347-1.089.672-1.691.95-.58.278-1.229.51-1.924.672a2.653 2.653 0 00-.139.58c-.023.208-.046.324-.046.393 0 .719.162 1.228.486 1.553.325.324.811.463 1.437.463.556 0 1.113-.139 1.669-.394.556-.278 1.066-.533 1.506-.81l.185.3c-.255.21-.579.44-.927.673-.37.231-.741.44-1.158.648a6.88 6.88 0 01-1.252.487 4.842 4.842 0 01-1.274.186c-.788 0-1.414-.186-1.877-.557-.464-.37-.696-.95-.696-1.738 0-1.668.742-3.198 2.248-4.635.325-.3.696-.602 1.113-.926.417-.325.834-.58 1.297-.835.441-.255.927-.44 1.391-.602a4.44 4.44 0 011.437-.232c.695.046 1.043.278 1.043.741zm-1.947.81c0-.324-.209-.463-.603-.463-.301 0-.625.116-.996.325-.348.208-.695.51-1.02.834a7.73 7.73 0 00-.904 1.159 5.402 5.402 0 00-.625 1.274c.394-.07.834-.208 1.321-.394a6.88 6.88 0 001.344-.741 4.619 4.619 0 001.043-.95c.301-.348.44-.696.44-1.043zm24.148-.996c0 .162-.047.371-.116.65a8.87 8.87 0 01-.278.833l-.348.904a8.788 8.788 0 01-.348.788l-.764 1.715c-.07.139-.139.301-.232.51a7.148 7.148 0 00-.255.625 3.78 3.78 0 00-.209.603 1.249 1.249 0 00-.092.417c0 .186.092.278.301.278.116 0 .255-.046.417-.116.186-.07.417-.208.719-.417l.764-.533.186.44c-.974.788-1.762 1.368-2.41 1.715-.649.371-1.159.557-1.553.557-.325 0-.487-.163-.487-.464 0-.116.023-.278.093-.486.069-.21.139-.44.209-.673.092-.231.185-.486.278-.741.092-.255.185-.464.278-.672l.811-1.947c.255-.626.463-1.159.602-1.553.139-.393.209-.672.209-.764 0-.186-.093-.278-.255-.278-.278 0-.579.092-.927.3a7.31 7.31 0 00-1.02.766c-.347.3-.695.649-1.042 1.043a18.85 18.85 0 00-.951 1.135c-.301.37-.533.718-.764 1.043-.209.324-.371.58-.464.765l-.44.88c-.07.116-.093.209-.116.278a.506.506 0 01-.116.186l-.417.417a3.705 3.705 0 01-.672.533c-.186.093-.371.162-.51.162-.185 0-.278-.093-.278-.278 0-.162.093-.417.255-.788.162-.37.371-.788.602-1.275l.58-1.205c.51-1.135.904-2.039 1.135-2.71.232-.673.348-1.09.348-1.23 0-.115-.046-.185-.162-.185-.255 0-.556.093-.904.302a6.287 6.287 0 00-1.089.81c-.394.325-.765.696-1.136 1.113-.371.394-.718.811-1.043 1.205-.324.394-.602.742-.834 1.09-.232.324-.394.579-.487.787l-.394.835c-.069.115-.092.208-.115.278a.521.521 0 01-.116.185l-.417.417a3.7 3.7 0 01-.672.533c-.186.093-.371.162-.51.162-.186 0-.278-.092-.278-.278 0-.092.069-.278.185-.556a9.83 9.83 0 01.417-.88l1.182-2.526c.371-.835.695-1.576.927-2.248.232-.672.348-1.16.348-1.437 0-.162-.047-.232-.163-.232s-.301.046-.556.14c-.278.092-.695.3-1.274.625l-.139-.394c.208-.116.509-.278.857-.464.371-.185.742-.37 1.136-.556.394-.185.787-.324 1.158-.463.394-.116.695-.186.974-.186.185 0 .278.093.278.278 0 .07-.047.255-.139.557-.093.3-.255.695-.464 1.205l-1.043 2.34.163.047a29.675 29.675 0 011.691-1.715c.58-.533 1.136-.997 1.669-1.414a10.557 10.557 0 011.506-.95c.464-.232.881-.348 1.228-.348.186 0 .302.047.371.14.07.092.093.208.093.37 0 .394-.232 1.136-.719 2.294l-.602 1.46c.695-.648 1.344-1.297 1.993-1.877a18.252 18.252 0 012.086-1.668c.648-.464 1.274-.695 1.877-.695.255-.024.394.139.394.486zm1.39-5.932c-.278.579-.672 1.112-1.182 1.622-.51.51-1.135.88-1.877 1.159a8.003 8.003 0 01-2.433.556c-.765.07-1.576.092-2.41.092-.95 0-1.738 0-2.341.023-.602.024-1.135.07-1.599.14-.44.07-.857.185-1.205.347a8.593 8.593 0 00-1.159.65l-.092-.279c.347-.278.648-.533.95-.718.301-.186.579-.348.834-.464.278-.116.533-.232.811-.301.278-.07.579-.162.904-.255.463-.116.95-.209 1.437-.255a31 31 0 011.46-.093c.486-.023.996-.023 1.506-.046s1.02-.046 1.553-.116c.973-.116 1.854-.324 2.595-.649a4.534 4.534 0 001.947-1.576l.301.163zm8.134 6.118c0 .278-.093.556-.301.857-.209.301-.44.58-.742.857a9.436 9.436 0 01-.927.765c-.324.232-.602.44-.857.603-.533.347-1.089.672-1.692.95a9.387 9.387 0 01-1.923.672 2.59 2.59 0 00-.139.58c-.024.208-.047.324-.047.393 0 .719.163 1.228.487 1.553.324.324.811.463 1.437.463.556 0 1.112-.139 1.668-.394.556-.278 1.066-.533 1.507-.81l.185.3c-.255.21-.579.44-.927.673-.371.231-.742.44-1.159.648-.417.21-.834.371-1.251.487a4.85 4.85 0 01-1.275.186c-.788 0-1.413-.186-1.877-.557-.463-.37-.695-.95-.695-1.738 0-1.668.742-3.198 2.248-4.635.324-.3.695-.602 1.112-.926a9.53 9.53 0 011.298-.835c.44-.255.927-.44 1.39-.602a4.444 4.444 0 011.437-.232c.696.046 1.043.278 1.043.741zm-1.947.81c0-.324-.208-.463-.602-.463-.301 0-.626.116-.997.325-.347.208-.695.51-1.019.834a7.666 7.666 0 00-.904 1.159 5.407 5.407 0 00-.626 1.274c.394-.07.835-.208 1.321-.394.487-.208.927-.44 1.344-.741a4.598 4.598 0 001.043-.95c.301-.348.44-.696.44-1.043zm12.005-1.436c0 .209-.163.51-.464.904-.301.394-.695.834-1.159 1.297-.44.464-.927.95-1.436 1.46-.51.487-.974.95-1.368 1.368l.186.927c.069.278.116.533.162.741.046.209.093.394.139.556.093.279.185.464.255.603a.66.66 0 00.556.278c.348 0 .742-.162 1.228-.51.371-.255.765-.579 1.205-.996l.163.44c-1.484 1.576-2.781 2.364-3.847 2.364-.417 0-.719-.394-.95-1.205-.14-.51-.302-1.252-.487-2.202-.186.186-.371.394-.579.603-.209.208-.441.417-.673.649-.857.788-1.506 1.344-1.969 1.668-.464.348-.858.51-1.229.51a.448.448 0 01-.37-.185c-.093-.116-.139-.325-.139-.626 0-.185.023-.394.092-.672.417 0 1.089-.209 1.97-.649 1.02-.51 1.947-1.136 2.758-1.923l-.44-2.689c-.093-.579-.209-.95-.348-1.112-.139-.162-.371-.232-.695-.232-.348 0-.719.07-1.113.209-.394.139-.764.301-1.112.44l-.093-.394c.186-.116.464-.255.835-.44a29.7 29.7 0 011.181-.556c.418-.186.812-.325 1.182-.464.371-.139.672-.185.858-.185.255 0 .417.139.486.394.093.255.163.718.255 1.367l.394 2.688a24.755 24.755 0 001.854-1.97c.58-.695 1.066-1.506 1.507-2.386.115-.047.231-.093.393-.163.163-.07.371-.092.603-.092.07 0 .139.023.162.046.047-.046.047.023.047.139zm11.054.116a3.36 3.36 0 00-.209.417c-.093.162-.162.324-.255.486-.092.162-.162.325-.231.464a2.87 2.87 0 00-.14.301c-.162.348-.37.834-.625 1.414-.255.579-.556 1.297-.927 2.132-.209.486-.394.927-.556 1.297-.163.394-.232.672-.232.858 0 .139.023.208.069.255a.503.503 0 00.232.046c.116 0 .301-.046.51-.162.209-.116.417-.232.649-.37.255-.163.487-.325.765-.534l.185.44c-.162.14-.417.325-.742.58-.324.255-.672.51-1.066.741a8.13 8.13 0 01-1.158.65c-.394.185-.742.277-1.02.277-.209 0-.324-.046-.394-.139a.493.493 0 01-.093-.324c0-.14.024-.278.07-.487.046-.208.116-.417.208-.649.093-.231.186-.463.279-.718.092-.255.185-.487.278-.695l.834-1.97a7.259 7.259 0 01-.881.232 6.15 6.15 0 01-.811.115 7.73 7.73 0 01-1.182.116c-.347.024-.649.024-.973.07l-1.228 2.92a1.24 1.24 0 01-.255.463c-.07.07-.232.209-.487.394a5.36 5.36 0 01-.718.464c-.209.116-.371.162-.533.162-.139 0-.209-.023-.232-.07-.023-.046-.023-.115-.023-.185 0-.07.046-.232.162-.487s.278-.602.487-1.02c.208-.463.394-.857.579-1.204.162-.325.278-.603.394-.881.116-.278.185-.417.209-.463-.163.023-.348.046-.51.07-.186.022-.348.045-.533.069l.092-.325a8.587 8.587 0 011.229-.417c.092-.209.208-.487.324-.788l.348-.904c.116-.301.185-.556.255-.788.069-.231.092-.394.092-.51 0-.162-.069-.231-.208-.231-.116 0-.278.046-.487.116-.208.07-.394.162-.602.255l-.742.37-.139-.394c.255-.139.556-.3.95-.486.394-.186.765-.371 1.182-.556.394-.163.788-.325 1.136-.44.37-.117.648-.186.857-.186.07 0 .139.023.185.046.047.023.07.116.07.232 0 .046-.023.139-.046.278-.047.116-.093.278-.14.44-.069.163-.139.348-.208.533-.07.186-.139.371-.209.533l-.903 2.11c.37-.047.741-.093 1.089-.117.371-.023.718-.046 1.066-.092.371-.024.672-.047.927-.093.255-.023.463-.046.672-.093l.649-1.576a7.46 7.46 0 01.486-1.042c.163-.278.348-.487.58-.65a3.69 3.69 0 01.741-.37c.255-.093.441-.14.626-.14.046 0 .093 0 .139.024.046.023.093.093.093.185zm10.011 1.691a5.37 5.37 0 01-.579 2.434 11.015 11.015 0 01-1.46 2.247c-.881 1.02-1.738 1.762-2.573 2.225-.857.464-1.738.695-2.642.695-1.436 0-2.155-.718-2.155-2.132 0-.533.093-1.066.301-1.645.209-.58.464-1.136.812-1.669a10.05 10.05 0 012.757-2.85 7.68 7.68 0 011.738-.88 5.682 5.682 0 011.854-.325c.626 0 1.113.162 1.46.51.302.347.487.81.487 1.39zm-1.877.765c0-.626-.093-1.043-.301-1.298-.209-.232-.533-.37-1.043-.37-1.113 0-2.086.648-2.99 1.97-.904 1.297-1.344 2.664-1.344 4.101 0 .463.116.811.325 1.112.208.278.556.417 1.066.417a2.38 2.38 0 001.181-.324 4.334 4.334 0 001.043-.834 7.14 7.14 0 00.858-1.159c.255-.44.463-.857.649-1.298a7.48 7.48 0 00.417-1.274c.069-.394.139-.742.139-1.043zm11.888-2.364c0 .14-.139.44-.394.881-.254.44-.533.95-.811 1.53-.139.278-.324.672-.556 1.135-.232.464-.463.95-.695 1.46-.232.487-.417.95-.579 1.367-.163.417-.255.696-.255.858 0 .185.116.278.324.278.162 0 .301-.023.464-.093.162-.07.301-.116.44-.185.162-.093.301-.186.463-.278l.186.44c-.162.139-.394.301-.672.51-.278.208-.58.417-.927.602a5.96 5.96 0 01-1.02.51 2.62 2.62 0 01-.95.209c-.348 0-.533-.163-.533-.51 0-.162.046-.394.139-.695.093-.302.232-.65.371-1.02.162-.37.324-.765.51-1.182.185-.417.37-.811.556-1.182.185-.37.347-.718.51-1.02.162-.3.278-.532.37-.718.255-.533.441-.927.58-1.182.116-.278.185-.463.185-.556 0-.093-.069-.116-.185-.116-.394 0-.904.232-1.576.719-.672.486-1.414 1.158-2.225 2.016a14.832 14.832 0 00-1.529 1.946 3.974 3.974 0 00-.649 2.179c0 .162 0 .255.023.301a3.342 3.342 0 01-.765.742c-.301.208-.556.3-.788.3a.668.668 0 01-.44-.138c-.116-.093-.162-.255-.162-.533 0-.487.371-1.228 1.135-2.271a22.764 22.764 0 011.947-2.271 28.685 28.685 0 012.456-2.248c.209-.162.441-.325.696-.51.278-.162.533-.324.811-.487.278-.162.533-.278.788-.417.255-.116.463-.208.649-.278a4.21 4.21 0 01.95-.278c.371-.07.649-.093.834-.093.07 0 .139 0 .209.024.069.023.115.115.115.254zm9.548 1.599a5.37 5.37 0 01-.579 2.434 11.015 11.015 0 01-1.46 2.247c-.881 1.02-1.738 1.762-2.572 2.225-.858.464-1.738.695-2.642.695-1.437 0-2.155-.718-2.155-2.132 0-.533.092-1.066.301-1.645.208-.58.463-1.136.811-1.669.347-.533.765-1.066 1.228-1.552a10.11 10.11 0 011.53-1.298 7.66 7.66 0 011.738-.88 5.673 5.673 0 011.854-.325c.625 0 1.112.162 1.46.51.301.347.486.81.486 1.39zm-1.877.765c0-.626-.093-1.043-.301-1.298-.209-.232-.533-.37-1.043-.37-1.112 0-2.086.648-2.989 1.97-.904 1.297-1.345 2.664-1.345 4.101 0 .463.116.811.325 1.112.208.278.556.417 1.066.417.417 0 .811-.115 1.182-.324a4.354 4.354 0 001.043-.834 7.17 7.17 0 00.857-1.159c.255-.44.464-.857.649-1.298a7.48 7.48 0 00.417-1.274c.07-.394.139-.742.139-1.043zm8.459-1.993c0 .463-.209.973-.626 1.576-.417.602-1.043 1.39-1.854 2.364-.394.463-.695.834-.927 1.135-.232.301-.417.58-.533.788a2.86 2.86 0 00-.255.556 1.437 1.437 0 00-.069.417c0 .209.069.371.208.44a.94.94 0 00.394.117c.209 0 .394-.024.603-.093.208-.07.394-.162.602-.278a3.3 3.3 0 00.556-.371c.186-.14.348-.255.487-.37l.232.277c-.325.278-.649.58-.974.858-.324.278-.648.533-.996.765a7.398 7.398 0 01-1.043.532 2.964 2.964 0 01-1.112.21c-.371 0-.626-.07-.765-.21-.139-.139-.209-.324-.209-.556 0-.185.047-.394.163-.625a6.15 6.15 0 01.51-.811c.231-.325.533-.696.903-1.136.371-.44.811-.95 1.321-1.576.325-.394.58-.718.765-1.02.185-.278.348-.556.44-.764.093-.232.163-.417.186-.603.023-.162.023-.347.023-.51 0-.185-.07-.324-.186-.394-.115-.07-.278-.092-.44-.092-.162 0-.324.046-.533.115-.208.07-.394.163-.602.279a9.084 9.084 0 00-.626.394c-.209.162-.394.3-.579.463l-.232-.278c.301-.232.602-.487.95-.742s.695-.51 1.089-.718a9.262 9.262 0 011.182-.556 3.665 3.665 0 011.205-.209c.162 0 .325.047.487.116.185.047.255.232.255.51zm11.656-.463c0 .023-.092.231-.278.602-.185.37-.394.834-.625 1.39l-1.414 3.291c-.07.162-.139.325-.232.533-.092.209-.185.394-.255.603a7.213 7.213 0 01-.208.556 1.23 1.23 0 00-.093.417c0 .185.093.278.301.278.116 0 .302-.07.603-.232s.741-.44 1.298-.834l.185.44c-.973.788-1.761 1.368-2.41 1.715-.649.371-1.159.557-1.553.557-.324 0-.486-.163-.486-.464 0-.162.023-.348.069-.556.046-.209.116-.417.209-.649l.278-.695c.092-.232.185-.464.278-.672.278-.626.51-1.136.695-1.553.185-.417.348-.765.464-1.02.115-.278.231-.486.301-.648.069-.163.139-.325.208-.44h-.208l-.626.671c-.44.487-.927.997-1.437 1.553-.51.556-1.043 1.09-1.552 1.599-.51.533-1.043.996-1.53 1.46-.51.44-.973.811-1.367 1.112a1.18 1.18 0 01-.417.209c-.163.046-.325.093-.464.093-.162 0-.301-.047-.371-.14-.092-.092-.115-.208-.115-.347 0-.116.023-.278.069-.487a4.69 4.69 0 01.255-.741c.278-.65.556-1.321.881-2.016.301-.696.579-1.321.834-1.9.255-.58.463-1.09.626-1.507.162-.417.231-.718.231-.834 0-.116-.069-.186-.185-.186-.209 0-.556.116-1.089.371l-.765.394-.139-.394c.255-.162.556-.324.904-.51.371-.185.718-.37 1.112-.533.371-.162.742-.301 1.089-.417.348-.116.649-.185.927-.185.186 0 .278.092.278.278 0 .116-.069.37-.231.788-.163.417-.348.857-.557 1.367-.208.51-.417.997-.648 1.483-.232.487-.394.834-.487 1.09-.487 1.112-.742 1.714-.742 1.83 0 .186.07.278.186.278.116 0 .324-.116.602-.324.278-.209.603-.51.95-.834a53.28 53.28 0 001.113-1.136c.394-.417.741-.834 1.112-1.205.348-.394.672-.742.95-1.066.278-.325.464-.556.603-.719l.649-.741c.116-.116.208-.209.324-.301.116-.093.209-.163.325-.232.509-.348.996-.51 1.413-.51.093-.116.162-.046.162.07zm11.425 0c0 .023-.092.231-.278.602-.185.37-.394.834-.626 1.39l-1.413 3.291c-.07.162-.139.325-.232.533-.093.209-.185.394-.255.603a7.213 7.213 0 01-.208.556 1.23 1.23 0 00-.093.417c0 .185.093.278.301.278.116 0 .301-.07.603-.232.301-.162.741-.44 1.297-.834l.186.44c-.974.788-1.761 1.368-2.41 1.715-.649.371-1.159.557-1.553.557-.324 0-.487-.163-.487-.464 0-.162.024-.348.07-.556a4.21 4.21 0 01.208-.649l.279-.695c.092-.232.185-.464.278-.672.278-.626.509-1.136.695-1.553.185-.417.347-.765.463-1.02.116-.278.232-.486.302-.648.069-.163.139-.325.208-.44h-.208l-.626.671c-.44.487-.927.997-1.437 1.553-.51.556-1.043 1.09-1.553 1.599-.509.533-1.042.996-1.529 1.46-.51.44-.973.811-1.367 1.112a1.176 1.176 0 01-.418.209c-.162.046-.324.093-.463.093-.162 0-.301-.047-.371-.14-.092-.092-.116-.208-.116-.347 0-.116.024-.278.07-.487a4.69 4.69 0 01.255-.741c.278-.65.556-1.321.88-2.016.302-.696.58-1.321.835-1.9.255-.58.463-1.09.625-1.507.163-.417.232-.718.232-.834 0-.116-.069-.186-.185-.186-.209 0-.556.116-1.089.371l-.765.394-.139-.394c.255-.162.556-.324.904-.51.37-.185.718-.37 1.112-.533.371-.162.741-.301 1.089-.417.348-.116.649-.185.927-.185.185 0 .278.092.278.278 0 .116-.069.37-.232.788-.162.417-.347.857-.556 1.367-.208.51-.417.997-.649 1.483-.231.487-.394.834-.486 1.09-.487 1.112-.742 1.714-.742 1.83 0 .186.07.278.186.278.115 0 .324-.116.602-.324.278-.209.603-.51.95-.834a53.28 53.28 0 001.113-1.136c.394-.417.741-.834 1.112-1.205.348-.394.672-.742.95-1.066.278-.325.464-.556.603-.719l.648-.741c.116-.116.209-.209.325-.301.116-.093.208-.163.324-.232.51-.348.997-.51 1.414-.51.093-.116.162-.046.162.07zM60.557 55.93c-.466 0-.9-.084-1.304-.251a3.017 3.017 0 01-1.043-.73 3.58 3.58 0 01-.699-1.178c-.166-.473-.25-1.012-.25-1.617s.09-1.14.271-1.606c.188-.473.435-.869.74-1.189.307-.32.661-.56 1.065-.72a3.28 3.28 0 011.261-.25c.272 0 .518.018.74.053.223.034.418.08.585.135.167.049.31.101.427.157.118.048.209.093.271.135l-.229.615a3.825 3.825 0 00-.667-.302c-.265-.104-.595-.156-.991-.156-.452 0-.848.076-1.189.23a2.346 2.346 0 00-.845.646c-.23.278-.403.608-.521.99a4.548 4.548 0 00-.167 1.273c0 .48.056.914.167 1.303.118.382.288.71.51.98.223.272.495.48.814.626.327.146.699.22 1.116.22.459 0 .841-.043 1.147-.126.313-.09.55-.18.71-.271l.198.605a1.357 1.357 0 01-.25.125 6.36 6.36 0 01-.45.135c-.18.05-.388.087-.625.115-.236.035-.5.052-.792.052zm7.084-4.683c-.208.25-.452.566-.73.949-.27.382-.549.785-.834 1.21a60.14 60.14 0 00-1.47 2.367h-.636V50.38h.667v4.32a24.883 24.883 0 011.408-2.222c.278-.403.556-.789.834-1.157.285-.369.55-.681.793-.939h.636v5.392h-.668v-4.526zm4.16-.292v.219c0 .209-.003.438-.01.688a14.29 14.29 0 01-.042.751c-.02.257-.055.514-.104.772-.042.25-.097.486-.167.709-.076.23-.174.448-.292.657a2.404 2.404 0 01-.407.542 2.066 2.066 0 01-.542.386 2.09 2.09 0 01-.688.188l-.094-.563c.347-.077.626-.22.834-.428.216-.209.393-.504.532-.886.139-.383.226-.82.26-1.314.042-.501.063-1.047.063-1.638v-.657h3.316v5.392h-.677v-4.818H71.8zm4.559-.574h.677v2.159c.125-.035.31-.07.553-.104a4.65 4.65 0 01.772-.063c.291 0 .566.031.823.094.258.063.483.163.678.302.195.14.348.32.459.543.118.222.177.493.177.813 0 .32-.059.591-.177.814a1.502 1.502 0 01-.47.552 1.94 1.94 0 01-.708.303 3.888 3.888 0 01-.876.094 8.05 8.05 0 01-.574-.021 10.575 10.575 0 01-.532-.052 6.368 6.368 0 01-.459-.073 2.164 2.164 0 01-.344-.094V50.38zm1.908 4.902c.465 0 .837-.087 1.115-.261.279-.18.418-.48.418-.897 0-.194-.039-.365-.115-.51a.964.964 0 00-.313-.355 1.161 1.161 0 00-.459-.209 2.122 2.122 0 00-.573-.073c-.23 0-.46.01-.689.031-.23.021-.434.063-.615.125v2.044c.09.021.25.046.48.073.23.021.48.032.75.032zm7.818.49h-.678V53.26h-2.93v2.513H81.8V50.38h.678v2.305h2.93V50.38h.678v5.392zm1.898-5.392h.678v2.159c.125-.035.31-.07.553-.104.243-.042.486-.063.73-.063.27 0 .532.031.782.094.257.063.48.163.667.302.195.14.348.32.459.543.118.222.177.493.177.813 0 .32-.059.591-.177.814a1.544 1.544 0 01-.459.552 1.94 1.94 0 01-.699.303 3.656 3.656 0 01-.844.094 7.44 7.44 0 01-.553-.021 7.417 7.417 0 01-.97-.125 2.165 2.165 0 01-.344-.094V50.38zm1.867 4.902c.438 0 .792-.09 1.064-.271.278-.181.417-.477.417-.887 0-.194-.039-.365-.115-.51a.964.964 0 00-.313-.355 1.16 1.16 0 00-.448-.209 1.889 1.889 0 00-.532-.073c-.216 0-.435.01-.657.031a2.62 2.62 0 00-.605.125v2.044c.09.021.247.046.47.073.222.021.462.032.719.032zm3.994.49h-.678V50.38h.678v5.392zm5.573-4.526c-.209.25-.452.566-.73.949-.272.382-.55.785-.835 1.21a60.083 60.083 0 00-1.47 2.367h-.636V50.38h.667v4.32a24.883 24.883 0 011.408-2.222c.278-.403.556-.789.834-1.157.285-.369.55-.681.793-.939h.636v5.392h-.667v-4.526zm-1.502-1.783c-.39 0-.71-.108-.96-.324-.25-.215-.41-.521-.48-.917l.553-.146c.042.236.133.43.272.584.146.146.35.219.615.219.264 0 .466-.073.605-.22a1.1 1.1 0 00.281-.583l.553.146c-.07.396-.23.702-.48.917-.25.216-.57.324-.96.324zm8.232 3.869c-.153.201-.306.413-.459.636-.152.222-.302.441-.448.657a17.03 17.03 0 00-.386.625 13.03 13.03 0 00-.302.522h-.699a15.92 15.92 0 01.897-1.491c.313-.466.633-.922.959-1.367l-1.752-2.534h.793l1.397 2.065 1.419-2.065h.74l-1.721 2.493c.146.194.303.406.47.636.166.23.333.47.5.72.167.243.327.497.48.76.16.265.306.526.438.783h-.73a13.036 13.036 0 00-.303-.522c-.118-.201-.25-.41-.396-.625a15.72 15.72 0 00-.448-.657 31.893 31.893 0 00-.449-.636zm8.116-.251a3.4 3.4 0 01-.187 1.158 2.494 2.494 0 01-.511.886 2.34 2.34 0 01-.772.574 2.424 2.424 0 01-.991.198 2.42 2.42 0 01-.99-.198 2.457 2.457 0 01-.783-.574 2.723 2.723 0 01-.511-.886 3.584 3.584 0 01-.177-1.158c0-.424.059-.81.177-1.157.126-.348.296-.643.511-.887.223-.25.484-.441.783-.573.298-.14.629-.209.99-.209.362 0 .692.07.991.209.299.132.556.323.772.573.222.244.392.54.511.887.125.347.187.733.187 1.157zm-.719 0c0-.674-.157-1.21-.469-1.606-.313-.403-.737-.605-1.273-.605-.535 0-.959.202-1.272.605-.313.397-.469.932-.469 1.606 0 .675.156 1.21.469 1.606.313.396.737.595 1.272.595.536 0 .96-.199 1.273-.595.312-.396.469-.931.469-1.606zm6.445 2.118h.615v2.064h-.657v-1.491h-4.192v1.491h-.657V55.2h.553c.229-.361.41-.709.542-1.043.139-.333.243-.674.313-1.022a6.89 6.89 0 00.146-1.095c.028-.389.041-.813.041-1.272v-.386h3.296V55.2zm-2.659-4.245c0 .375-.014.744-.042 1.105-.021.362-.066.72-.136 1.074a7.143 7.143 0 01-.292 1.054c-.125.34-.288.678-.49 1.011h2.941v-4.244h-1.981zm5.56 4.369c0 .16-.052.296-.156.407-.098.111-.237.167-.417.167a.558.558 0 01-.428-.167.598.598 0 01-.146-.407c0-.16.049-.295.146-.406a.558.558 0 01.428-.167c.18 0 .319.056.417.167a.574.574 0 01.156.406zm6.535-2.085c.146-.327.296-.682.448-1.064.153-.39.303-.79.449-1.2a33.8 33.8 0 00.407-1.24c.132-.417.246-.814.344-1.19h.751a32.2 32.2 0 01-.428 1.367c-.139.424-.285.838-.438 1.241a34.292 34.292 0 01-.959 2.336c-.112.25-.233.515-.365.793a3.706 3.706 0 01-.491.771 2.44 2.44 0 01-.719.574c-.278.146-.622.219-1.032.219-.181 0-.341-.021-.48-.063a1.336 1.336 0 01-.292-.104l.135-.584c.049.028.129.063.24.104.111.035.257.052.438.052.237 0 .442-.034.615-.104.181-.076.334-.174.459-.292a1.83 1.83 0 00.344-.417 4.16 4.16 0 00.261-.5c-.32-.487-.619-.977-.897-1.471a37.386 37.386 0 01-.751-1.44 68.768 68.768 0 01-.615-1.324 55.74 55.74 0 01-.479-1.157h.792c.236.64.542 1.37.918 2.19.382.82.831 1.655 1.345 2.503zm5.172-2.972c.209 0 .441.014.699.041.264.021.511.08.74.178.23.09.421.236.574.438.16.194.24.462.24.803 0 .264-.077.5-.23.709a1.345 1.345 0 01-.626.448c.39.104.671.271.845.5.174.23.261.512.261.845 0 .362-.073.654-.219.876a1.465 1.465 0 01-.584.501 2.596 2.596 0 01-.814.219 7.94 7.94 0 01-.917.052 5.91 5.91 0 01-.991-.073 7.871 7.871 0 01-.72-.156v-5.152c.174-.056.404-.108.689-.156a6.404 6.404 0 011.053-.073zm-1.064 2.377h1.231c.417 0 .754-.07 1.011-.208.258-.14.386-.372.386-.699 0-.209-.045-.372-.135-.49a.794.794 0 00-.355-.26 1.557 1.557 0 00-.5-.116 5.1 5.1 0 00-1.221.01 2.997 2.997 0 00-.417.063v1.7zm0 .563v1.982a.966.966 0 00.167.041c.084.008.174.018.271.032l.324.02a5.289 5.289 0 001.011-.031c.216-.027.403-.08.563-.156a1.1 1.1 0 00.386-.323c.097-.14.146-.32.146-.543a.904.904 0 00-.125-.49.812.812 0 00-.334-.313 1.632 1.632 0 00-.5-.166 3.387 3.387 0 00-.616-.053h-1.293zm4.796-.135c0-.473.066-.883.198-1.23.139-.355.317-.65.532-.887a2.1 2.1 0 01.751-.521c.285-.119.577-.178.876-.178.661 0 1.185.216 1.575.647.396.43.594 1.095.594 1.992 0 .055-.003.11-.01.166 0 .056-.004.108-.011.157h-3.785c.021.66.184 1.168.49 1.522.306.355.793.532 1.46.532.368 0 .66-.035.876-.104a3.65 3.65 0 00.469-.177l.125.584c-.097.055-.281.121-.552.198a3.402 3.402 0 01-.939.114c-.473 0-.876-.069-1.21-.208a2.164 2.164 0 01-.823-.584 2.316 2.316 0 01-.47-.886 4.217 4.217 0 01-.146-1.137zm3.828-.428c-.014-.563-.146-1-.397-1.314-.25-.313-.605-.469-1.063-.469a1.45 1.45 0 00-.657.146 1.71 1.71 0 00-.501.396 1.9 1.9 0 00-.334.564 2.466 2.466 0 00-.135.677h3.087zm2.991 2.159c.062.049.139.1.229.156.098.056.209.108.334.157.125.048.261.09.407.125.146.028.299.042.459.042.333 0 .611-.056.834-.167.229-.118.414-.275.553-.47a2.06 2.06 0 00.302-.698c.063-.271.094-.556.094-.855 0-.71-.177-1.252-.532-1.627-.355-.383-.824-.574-1.408-.574a5.11 5.11 0 00-.813.052c-.202.028-.355.06-.459.094v3.765zm0 2.9h-.678v-7.134c.202-.07.459-.136.772-.198a6.227 6.227 0 011.189-.094c.396 0 .754.066 1.074.198.326.125.605.31.834.553.236.243.417.539.542.886a3.3 3.3 0 01.198 1.179c0 .41-.055.789-.166 1.136a2.521 2.521 0 01-.47.887 2.2 2.2 0 01-.771.573 2.424 2.424 0 01-1.033.209 2.69 2.69 0 01-.928-.146 2.545 2.545 0 01-.563-.292v2.242zm5.183-4.631c0-.473.066-.883.198-1.23.139-.355.316-.65.532-.887.222-.236.473-.41.751-.521.285-.119.577-.178.876-.178.66 0 1.185.216 1.574.647.397.43.595 1.095.595 1.992 0 .055-.004.11-.011.166 0 .056-.003.108-.01.157h-3.786c.021.66.185 1.168.491 1.522.306.355.792.532 1.46.532.368 0 .66-.035.876-.104a3.65 3.65 0 00.469-.177l.125.584c-.097.055-.282.121-.553.198a3.394 3.394 0 01-.938.114c-.473 0-.876-.069-1.21-.208a2.168 2.168 0 01-.824-.584 2.314 2.314 0 01-.469-.886 4.217 4.217 0 01-.146-1.137zm3.827-.428c-.014-.563-.146-1-.396-1.314-.25-.313-.605-.469-1.064-.469-.243 0-.462.049-.657.146a1.7 1.7 0 00-.5.396 1.88 1.88 0 00-.334.564 2.43 2.43 0 00-.136.677h3.087zm6.6 3.129h-.678V53.26h-2.93v2.513h-.678V50.38h.678v2.305h2.93V50.38h.678v5.392zm6.184 0h-.678V53.26h-2.93v2.513h-.678V50.38h.678v2.305h2.93V50.38h.678v5.392zm3.598-.49c.264 0 .493-.007.688-.021.202-.021.372-.045.511-.073V53.29a1.862 1.862 0 00-.365-.104 2.968 2.968 0 00-.688-.063 3.44 3.44 0 00-.522.042c-.18.02-.347.073-.5.156a1 1 0 00-.376.323c-.097.14-.146.324-.146.553 0 .202.032.372.094.511.07.14.164.25.282.334.125.083.271.146.438.188.174.034.368.052.584.052zm-.063-5.027c.355 0 .654.052.897.157.25.097.452.236.605.417a1.6 1.6 0 01.334.626c.069.243.104.507.104.792v3.4c-.07.02-.17.045-.302.073-.133.02-.286.045-.459.073a6.344 6.344 0 01-.584.062 6.459 6.459 0 01-.647.032c-.285 0-.549-.032-.792-.094a1.85 1.85 0 01-.626-.292 1.534 1.534 0 01-.417-.522 1.882 1.882 0 01-.146-.782c0-.292.055-.542.167-.75.111-.21.267-.38.469-.512.201-.139.441-.24.719-.302a4.11 4.11 0 01.908-.094c.097 0 .198.007.302.02.111.008.216.022.313.043.104.014.191.03.261.052a.671.671 0 01.156.041v-.333c0-.188-.014-.369-.042-.542a1.114 1.114 0 00-.187-.48.923.923 0 00-.397-.344c-.166-.09-.389-.136-.667-.136-.396 0-.692.028-.886.084a5.2 5.2 0 00-.428.135l-.094-.594c.118-.056.299-.108.542-.157.251-.048.55-.073.897-.073zm5.171 3.316c-.105.16-.219.334-.345.522a47.95 47.95 0 00-.354.573c-.111.195-.219.39-.323.584a5.726 5.726 0 00-.261.522h-.699c.181-.41.4-.824.657-1.241.257-.417.497-.782.72-1.095a1.904 1.904 0 01-.407-.177 1.504 1.504 0 01-.344-.292 1.544 1.544 0 01-.24-.418 1.584 1.584 0 01-.094-.563c0-.299.056-.556.167-.771.118-.216.275-.393.469-.532.202-.14.438-.244.709-.313.278-.07.574-.104.887-.104a6.043 6.043 0 01.97.084c.173.02.333.044.479.072.146.028.268.056.365.084v5.266h-.677v-2.17h-1.387a2.464 2.464 0 01-.292-.03zm1.679-2.607a3.458 3.458 0 00-.407-.062 5.066 5.066 0 00-.72-.042c-.194 0-.386.02-.573.063a1.436 1.436 0 00-.49.187c-.146.09-.265.209-.355.355a1.002 1.002 0 00-.125.521c0 .202.038.372.115.511.076.132.184.24.323.324.139.076.306.132.5.166.202.035.424.053.668.053h1.064v-2.076zm6.306 4.318c.487 0 .869-.08 1.147-.24a.811.811 0 00.418-.74c0-.237-.053-.425-.157-.564a1.054 1.054 0 00-.396-.323 1.494 1.494 0 00-.501-.146 3.048 3.048 0 00-.479-.042h-.751v-.573h.698c.126 0 .268-.01.428-.032.167-.02.32-.062.459-.125.139-.062.257-.15.354-.26a.695.695 0 00.146-.46c0-.18-.041-.33-.125-.448a.816.816 0 00-.313-.281 1.48 1.48 0 00-.458-.146 3.102 3.102 0 00-.511-.042c-.397 0-.71.042-.939.125a4.179 4.179 0 00-.469.178l-.157-.605c.098-.049.282-.108.553-.178a3.79 3.79 0 011.012-.114c.688 0 1.209.125 1.564.375.354.25.532.622.532 1.116 0 .306-.091.556-.271.75-.181.188-.393.32-.637.397.341.097.612.26.814.49.201.23.302.532.302.907 0 .536-.191.935-.573 1.2-.383.264-.942.396-1.679.396-.494 0-.89-.042-1.189-.125a4.151 4.151 0 01-.574-.188l.178-.615c.02.014.066.038.135.073.077.028.181.062.313.104a4.498 4.498 0 001.126.136zm5.523 0c.264 0 .493-.007.688-.021.202-.021.372-.045.511-.073V53.29a1.862 1.862 0 00-.365-.104 2.968 2.968 0 00-.688-.063 3.44 3.44 0 00-.522.042c-.18.02-.347.073-.5.156a1 1 0 00-.376.323c-.097.14-.146.324-.146.553 0 .202.032.372.094.511.07.14.164.25.282.334.125.083.271.146.438.188.174.034.368.052.584.052zm-.063-5.027c.355 0 .654.052.897.157.25.097.452.236.605.417a1.6 1.6 0 01.334.626c.069.243.104.507.104.792v3.4c-.07.02-.17.045-.303.073-.132.02-.285.045-.458.073a6.344 6.344 0 01-.584.062 6.459 6.459 0 01-.647.032 3.21 3.21 0 01-.793-.094 1.855 1.855 0 01-.625-.292 1.534 1.534 0 01-.417-.522 1.882 1.882 0 01-.146-.782c0-.292.055-.542.167-.75.111-.21.267-.38.469-.512.201-.139.441-.24.719-.302a4.11 4.11 0 01.908-.094c.097 0 .198.007.302.02.111.008.216.022.313.043.104.014.191.03.261.052a.671.671 0 01.156.041v-.333c0-.188-.014-.369-.042-.542a1.127 1.127 0 00-.187-.48.923.923 0 00-.397-.344c-.167-.09-.389-.136-.667-.136-.396 0-.692.028-.887.084a5.62 5.62 0 00-.427.135l-.094-.594c.118-.056.299-.108.542-.157.251-.048.55-.073.897-.073zm10.333 5.517h-6.56V50.38h.678v4.82h2.284v-4.818h.678V55.2h2.283v-4.818h.678V55.2h.616v2.065h-.657v-1.491zm5.648-4.526c-.209.25-.452.566-.73.949-.272.382-.55.785-.835 1.21a56.854 56.854 0 00-1.47 2.367h-.636V50.38h.667v4.32a25.167 25.167 0 011.408-2.222c.278-.403.556-.789.834-1.157.285-.369.549-.681.793-.939h.636v5.392h-.667v-4.526zm6.036-.866v.574h-1.772v4.818h-.678v-4.818h-1.763v-.574h4.213zm2.854 4.902c.264 0 .493-.007.688-.021.201-.021.372-.045.511-.073V53.29a1.883 1.883 0 00-.365-.104 2.968 2.968 0 00-.688-.063 3.44 3.44 0 00-.522.042c-.181.02-.347.073-.5.156a1 1 0 00-.376.323c-.097.14-.146.324-.146.553 0 .202.031.372.094.511.07.14.163.25.282.334.125.083.271.146.438.188.173.034.368.052.584.052zm-.063-5.027c.355 0 .654.052.897.157.25.097.452.236.605.417.153.174.264.382.333.626.07.243.105.507.105.792v3.4c-.07.02-.171.045-.303.073l-.459.073a6.268 6.268 0 01-.584.062 6.439 6.439 0 01-.646.032 3.21 3.21 0 01-.793-.094 1.846 1.846 0 01-.625-.292 1.549 1.549 0 01-.418-.522 1.898 1.898 0 01-.146-.782c0-.292.056-.542.167-.75.112-.21.268-.38.47-.512.201-.139.441-.24.719-.302.278-.063.581-.094.907-.094.098 0 .199.007.303.02.111.008.215.022.313.043.104.014.191.03.26.052a.668.668 0 01.157.041v-.333c0-.188-.014-.369-.042-.542a1.115 1.115 0 00-.188-.48.915.915 0 00-.396-.344c-.167-.09-.389-.136-.667-.136-.397 0-.692.028-.887.084a5.62 5.62 0 00-.427.135l-.094-.594c.118-.056.299-.108.542-.157a4.76 4.76 0 01.897-.073zm4.732 5.068c0 .16-.052.296-.156.407-.097.111-.236.167-.417.167a.558.558 0 01-.428-.167.598.598 0 01-.146-.407c0-.16.049-.295.146-.406a.558.558 0 01.428-.167c.181 0 .32.056.417.167a.574.574 0 01.156.406z" fill="#D3AF4A"/><path d="M50.59 42.192h166.39" stroke="#D3AF4A" stroke-width="2" stroke-miterlimit="10"/><path fill-rule="evenodd" clip-rule="evenodd" d="M0 43.142h16.013v-1.066H0v1.066zm0-1.645l16.013.047v-.302L0 41.29v.208z" fill="#D3AD4A"/><path fill-rule="evenodd" clip-rule="evenodd" d="M5.075 21.359s-.046-.811.672-1.6c.719-.81 3.105-.81 4.148-1.112 1.02-.3 1.066-1.066 1.066-1.066v-3.105s-.023.742-1.066 1.066c-1.02.301-3.406.301-4.148 1.112-.695.788-.672 1.6-.672 1.6v3.105z" fill="#AB8B2F"/><path fill-rule="evenodd" clip-rule="evenodd" d="M10.938 17.605s.047-.811-.649-1.6c-.718-.81-3.105-.81-4.125-1.112-1.02-.301-1.089-1.066-1.089-1.066V10.7s.047.741 1.09 1.066c1.019.301 3.406.301 4.124 1.112.696.788.65 1.6.65 1.6v3.128z" fill="#D3AF4A"/><path fill-rule="evenodd" clip-rule="evenodd" d="M5.075 28.89s-.046-.81.672-1.599c.719-.81 3.105-.81 4.148-1.112 1.02-.301 1.066-1.066 1.066-1.066v-3.105s-.023.741-1.066 1.066c-1.02.301-3.406.301-4.148 1.112-.695.788-.672 1.6-.672 1.6v3.105z" fill="#AB8B2F"/><path fill-rule="evenodd" clip-rule="evenodd" d="M10.938 25.113s.047-.81-.649-1.599c-.718-.81-3.105-.81-4.125-1.112-1.02-.301-1.089-1.066-1.089-1.066V18.23s.047.741 1.09 1.066c1.019.3 3.406.3 4.124 1.112.696.788.65 1.599.65 1.599v3.105z" fill="#D3AF4A"/><path fill-rule="evenodd" clip-rule="evenodd" d="M5.075 36.422s-.046-.81.672-1.599c.719-.81 3.105-.81 4.148-1.112 1.02-.301 1.066-1.066 1.066-1.066V29.54s-.023.741-1.066 1.066c-1.02.3-3.406.3-4.148 1.112-.695.788-.672 1.599-.672 1.599v3.105z" fill="#AB8B2F"/></g><defs><clipPath id="clip0"><path fill="#fff" d="M0 0h230.769v60H0z"/></clipPath></defs></svg>