<svg width="20" height="20" fill="none" xmlns="http://www.w3.org/2000/svg"><path d="M16.075 8.422c.02-2.41-2.032-4.619-4.575-4.925a3.08 3.08 0 01-.164-.025 2.378 2.378 0 00-.388-.041c-.521 0-.66.366-.697.584-.036.212-.002.392.1.53.173.235.477.277.721.31.071.01.139.019.196.031 2.284.511 3.054 1.314 3.43 3.58.009.055.013.123.018.196.017.27.05.834.656.834.05 0 .105-.005.161-.013.564-.086.546-.6.538-.848a1.04 1.04 0 01.002-.18.248.248 0 00.001-.034l.001.001z" fill="#000" fill-opacity=".5"/><path d="M10.8 2.613c.068.005.132.01.185.018 3.752.577 5.478 2.355 5.956 6.137a1.9 1.9 0 01.01.224c.006.296.016.911.676.924h.02c.207 0 .371-.063.49-.186.205-.214.191-.533.179-.79a3.76 3.76 0 01-.005-.175c.048-3.867-3.3-7.374-7.164-7.504-.016 0-.031 0-.046.002a.323.323 0 01-.046.003c-.04 0-.086-.004-.137-.007-.06-.004-.129-.009-.2-.009-.615 0-.731.438-.746.698-.035.603.548.645.828.665zm5.96 11.042a11.62 11.62 0 01-.24-.187c-.41-.33-.845-.633-1.266-.927l-.262-.184c-.54-.379-1.025-.563-1.484-.563-.618 0-1.156.342-1.601 1.014-.197.299-.436.444-.73.444a1.45 1.45 0 01-.589-.148c-1.741-.79-2.986-2.002-3.698-3.6-.344-.774-.233-1.279.372-1.69.345-.234.984-.668.94-1.5-.052-.945-2.136-3.787-3.015-4.11a1.71 1.71 0 00-1.163-.003c-1.01.339-1.732.936-2.095 1.723-.35.762-.333 1.656.045 2.586C3.07 9.2 4.61 11.544 6.552 13.48c1.901 1.893 4.238 3.444 6.945 4.61.244.105.5.163.687.204.063.014.118.027.158.038a.265.265 0 00.068.009h.022c1.273 0 2.802-1.164 3.271-2.49.412-1.161-.34-1.735-.943-2.196zm-5.397-7.97c-.217.006-.671.018-.83.48-.076.216-.066.402.026.557.135.225.394.295.63.333.853.137 1.293.608 1.38 1.486.04.408.317.694.67.694a.66.66 0 00.08-.005c.424-.05.63-.363.612-.928.006-.59-.302-1.26-.828-1.794-.526-.535-1.161-.836-1.74-.822z" fill="#000" fill-opacity=".5"/></svg>