<svg width="20" height="20" fill="none" xmlns="http://www.w3.org/2000/svg"><path d="M10.625 18.75a9.291 9.291 0 01-4.55-1.172L0 20l2.422-6.074A9.292 9.292 0 011.25 9.375c0-1.276.247-2.49.742-3.643a9.447 9.447 0 012.002-2.988A9.448 9.448 0 016.982.742 9.136 9.136 0 0110.625 0c1.276 0 2.49.247 3.643.742a9.449 9.449 0 012.988 2.002 9.448 9.448 0 012.002 2.988A9.136 9.136 0 0120 9.375c0 1.276-.247 2.49-.742 3.643a9.45 9.45 0 01-2.002 2.988 9.45 9.45 0 01-2.988 2.002 9.136 9.136 0 01-3.643.742zm3.125-7.5H12.5l-.703.625c-.586-.156-1.306-.66-2.158-1.514-.853-.853-1.358-1.572-1.514-2.158L8.75 7.5V6.25c0-.221-.078-.443-.234-.664a1.482 1.482 0 00-.518-.479c-.189-.097-.322-.107-.4-.029l-.918.918c-.508.508-.583 1.299-.225 2.373.358 1.074 1.042 2.116 2.05 3.125 1.01 1.01 2.052 1.693 3.126 2.05 1.074.359 1.865.284 2.373-.224l.918-.918c.078-.078.068-.211-.03-.4a1.483 1.483 0 00-.478-.518 1.147 1.147 0 00-.664-.234z" fill="#000" fill-opacity=".5"/></svg>